<?xml version="1.0" encoding="utf-8" standalone="no"?>
<!DOCTYPE svg PUBLIC "-//W3C//DTD SVG 1.1//EN"
  "http://www.w3.org/Graphics/SVG/1.1/DTD/svg11.dtd">
<!-- Created with matplotlib (https://matplotlib.org/) -->
<svg height="345.6pt" version="1.1" viewBox="0 0 460.8 345.6" width="460.8pt" xmlns="http://www.w3.org/2000/svg" xmlns:xlink="http://www.w3.org/1999/xlink">
 <defs>
  <style type="text/css">
*{stroke-linecap:butt;stroke-linejoin:round;white-space:pre;}
  </style>
 </defs>
 <g id="figure_1">
  <g id="patch_1">
   <path d="M 0 345.6 
L 460.8 345.6 
L 460.8 0 
L 0 0 
z
" style="fill:#ffffff;"/>
  </g>
  <g id="axes_1">
   <g id="patch_2">
    <path d="M 57.6 119.740235 
L 414.72 119.740235 
L 414.72 41.472 
L 57.6 41.472 
z
" style="fill:#ffffff;"/>
   </g>
   <g id="matplotlib.axis_1">
    <g id="xtick_1">
     <g id="line2d_1">
      <defs>
       <path d="M 0 0 
L 0 3.5 
" id="m7067232c26" style="stroke:#000000;stroke-width:0.8;"/>
      </defs>
      <g>
       <use style="stroke:#000000;stroke-width:0.8;" x="73.832727" xlink:href="#m7067232c26" y="119.740235"/>
      </g>
     </g>
     <g id="text_1">
      <!-- 1.0 -->
      <defs>
       <path d="M 12.40625 8.296875 
L 28.515625 8.296875 
L 28.515625 63.921875 
L 10.984375 60.40625 
L 10.984375 69.390625 
L 28.421875 72.90625 
L 38.28125 72.90625 
L 38.28125 8.296875 
L 54.390625 8.296875 
L 54.390625 0 
L 12.40625 0 
z
" id="DejaVuSans-49"/>
       <path d="M 10.6875 12.40625 
L 21 12.40625 
L 21 0 
L 10.6875 0 
z
" id="DejaVuSans-46"/>
       <path d="M 31.78125 66.40625 
Q 24.171875 66.40625 20.328125 58.90625 
Q 16.5 51.421875 16.5 36.375 
Q 16.5 21.390625 20.328125 13.890625 
Q 24.171875 6.390625 31.78125 6.390625 
Q 39.453125 6.390625 43.28125 13.890625 
Q 47.125 21.390625 47.125 36.375 
Q 47.125 51.421875 43.28125 58.90625 
Q 39.453125 66.40625 31.78125 66.40625 
z
M 31.78125 74.21875 
Q 44.046875 74.21875 50.515625 64.515625 
Q 56.984375 54.828125 56.984375 36.375 
Q 56.984375 17.96875 50.515625 8.265625 
Q 44.046875 -1.421875 31.78125 -1.421875 
Q 19.53125 -1.421875 13.0625 8.265625 
Q 6.59375 17.96875 6.59375 36.375 
Q 6.59375 54.828125 13.0625 64.515625 
Q 19.53125 74.21875 31.78125 74.21875 
z
" id="DejaVuSans-48"/>
      </defs>
      <g transform="translate(65.881165 134.338673)scale(0.1 -0.1)">
       <use xlink:href="#DejaVuSans-49"/>
       <use x="63.623047" xlink:href="#DejaVuSans-46"/>
       <use x="95.410156" xlink:href="#DejaVuSans-48"/>
      </g>
     </g>
    </g>
    <g id="xtick_2">
     <g id="line2d_2">
      <g>
       <use style="stroke:#000000;stroke-width:0.8;" x="145.978182" xlink:href="#m7067232c26" y="119.740235"/>
      </g>
     </g>
     <g id="text_2">
      <!-- 1.2 -->
      <defs>
       <path d="M 19.1875 8.296875 
L 53.609375 8.296875 
L 53.609375 0 
L 7.328125 0 
L 7.328125 8.296875 
Q 12.9375 14.109375 22.625 23.890625 
Q 32.328125 33.6875 34.8125 36.53125 
Q 39.546875 41.84375 41.421875 45.53125 
Q 43.3125 49.21875 43.3125 52.78125 
Q 43.3125 58.59375 39.234375 62.25 
Q 35.15625 65.921875 28.609375 65.921875 
Q 23.96875 65.921875 18.8125 64.3125 
Q 13.671875 62.703125 7.8125 59.421875 
L 7.8125 69.390625 
Q 13.765625 71.78125 18.9375 73 
Q 24.125 74.21875 28.421875 74.21875 
Q 39.75 74.21875 46.484375 68.546875 
Q 53.21875 62.890625 53.21875 53.421875 
Q 53.21875 48.921875 51.53125 44.890625 
Q 49.859375 40.875 45.40625 35.40625 
Q 44.1875 33.984375 37.640625 27.21875 
Q 31.109375 20.453125 19.1875 8.296875 
z
" id="DejaVuSans-50"/>
      </defs>
      <g transform="translate(138.026619 134.338673)scale(0.1 -0.1)">
       <use xlink:href="#DejaVuSans-49"/>
       <use x="63.623047" xlink:href="#DejaVuSans-46"/>
       <use x="95.410156" xlink:href="#DejaVuSans-50"/>
      </g>
     </g>
    </g>
    <g id="xtick_3">
     <g id="line2d_3">
      <g>
       <use style="stroke:#000000;stroke-width:0.8;" x="218.123636" xlink:href="#m7067232c26" y="119.740235"/>
      </g>
     </g>
     <g id="text_3">
      <!-- 1.4 -->
      <defs>
       <path d="M 37.796875 64.3125 
L 12.890625 25.390625 
L 37.796875 25.390625 
z
M 35.203125 72.90625 
L 47.609375 72.90625 
L 47.609375 25.390625 
L 58.015625 25.390625 
L 58.015625 17.1875 
L 47.609375 17.1875 
L 47.609375 0 
L 37.796875 0 
L 37.796875 17.1875 
L 4.890625 17.1875 
L 4.890625 26.703125 
z
" id="DejaVuSans-52"/>
      </defs>
      <g transform="translate(210.172074 134.338673)scale(0.1 -0.1)">
       <use xlink:href="#DejaVuSans-49"/>
       <use x="63.623047" xlink:href="#DejaVuSans-46"/>
       <use x="95.410156" xlink:href="#DejaVuSans-52"/>
      </g>
     </g>
    </g>
    <g id="xtick_4">
     <g id="line2d_4">
      <g>
       <use style="stroke:#000000;stroke-width:0.8;" x="290.269091" xlink:href="#m7067232c26" y="119.740235"/>
      </g>
     </g>
     <g id="text_4">
      <!-- 1.6 -->
      <defs>
       <path d="M 33.015625 40.375 
Q 26.375 40.375 22.484375 35.828125 
Q 18.609375 31.296875 18.609375 23.390625 
Q 18.609375 15.53125 22.484375 10.953125 
Q 26.375 6.390625 33.015625 6.390625 
Q 39.65625 6.390625 43.53125 10.953125 
Q 47.40625 15.53125 47.40625 23.390625 
Q 47.40625 31.296875 43.53125 35.828125 
Q 39.65625 40.375 33.015625 40.375 
z
M 52.59375 71.296875 
L 52.59375 62.3125 
Q 48.875 64.0625 45.09375 64.984375 
Q 41.3125 65.921875 37.59375 65.921875 
Q 27.828125 65.921875 22.671875 59.328125 
Q 17.53125 52.734375 16.796875 39.40625 
Q 19.671875 43.65625 24.015625 45.921875 
Q 28.375 48.1875 33.59375 48.1875 
Q 44.578125 48.1875 50.953125 41.515625 
Q 57.328125 34.859375 57.328125 23.390625 
Q 57.328125 12.15625 50.6875 5.359375 
Q 44.046875 -1.421875 33.015625 -1.421875 
Q 20.359375 -1.421875 13.671875 8.265625 
Q 6.984375 17.96875 6.984375 36.375 
Q 6.984375 53.65625 15.1875 63.9375 
Q 23.390625 74.21875 37.203125 74.21875 
Q 40.921875 74.21875 44.703125 73.484375 
Q 48.484375 72.75 52.59375 71.296875 
z
" id="DejaVuSans-54"/>
      </defs>
      <g transform="translate(282.317528 134.338673)scale(0.1 -0.1)">
       <use xlink:href="#DejaVuSans-49"/>
       <use x="63.623047" xlink:href="#DejaVuSans-46"/>
       <use x="95.410156" xlink:href="#DejaVuSans-54"/>
      </g>
     </g>
    </g>
    <g id="xtick_5">
     <g id="line2d_5">
      <g>
       <use style="stroke:#000000;stroke-width:0.8;" x="362.414545" xlink:href="#m7067232c26" y="119.740235"/>
      </g>
     </g>
     <g id="text_5">
      <!-- 1.8 -->
      <defs>
       <path d="M 31.78125 34.625 
Q 24.75 34.625 20.71875 30.859375 
Q 16.703125 27.09375 16.703125 20.515625 
Q 16.703125 13.921875 20.71875 10.15625 
Q 24.75 6.390625 31.78125 6.390625 
Q 38.8125 6.390625 42.859375 10.171875 
Q 46.921875 13.96875 46.921875 20.515625 
Q 46.921875 27.09375 42.890625 30.859375 
Q 38.875 34.625 31.78125 34.625 
z
M 21.921875 38.8125 
Q 15.578125 40.375 12.03125 44.71875 
Q 8.5 49.078125 8.5 55.328125 
Q 8.5 64.0625 14.71875 69.140625 
Q 20.953125 74.21875 31.78125 74.21875 
Q 42.671875 74.21875 48.875 69.140625 
Q 55.078125 64.0625 55.078125 55.328125 
Q 55.078125 49.078125 51.53125 44.71875 
Q 48 40.375 41.703125 38.8125 
Q 48.828125 37.15625 52.796875 32.3125 
Q 56.78125 27.484375 56.78125 20.515625 
Q 56.78125 9.90625 50.3125 4.234375 
Q 43.84375 -1.421875 31.78125 -1.421875 
Q 19.734375 -1.421875 13.25 4.234375 
Q 6.78125 9.90625 6.78125 20.515625 
Q 6.78125 27.484375 10.78125 32.3125 
Q 14.796875 37.15625 21.921875 38.8125 
z
M 18.3125 54.390625 
Q 18.3125 48.734375 21.84375 45.5625 
Q 25.390625 42.390625 31.78125 42.390625 
Q 38.140625 42.390625 41.71875 45.5625 
Q 45.3125 48.734375 45.3125 54.390625 
Q 45.3125 60.0625 41.71875 63.234375 
Q 38.140625 66.40625 31.78125 66.40625 
Q 25.390625 66.40625 21.84375 63.234375 
Q 18.3125 60.0625 18.3125 54.390625 
z
" id="DejaVuSans-56"/>
      </defs>
      <g transform="translate(354.462983 134.338673)scale(0.1 -0.1)">
       <use xlink:href="#DejaVuSans-49"/>
       <use x="63.623047" xlink:href="#DejaVuSans-46"/>
       <use x="95.410156" xlink:href="#DejaVuSans-56"/>
      </g>
     </g>
    </g>
   </g>
   <g id="matplotlib.axis_2">
    <g id="ytick_1">
     <g id="line2d_6">
      <defs>
       <path d="M 0 0 
L -3.5 0 
" id="m7a189913a3" style="stroke:#000000;stroke-width:0.8;"/>
      </defs>
      <g>
       <use style="stroke:#000000;stroke-width:0.8;" x="57.6" xlink:href="#m7a189913a3" y="99.968673"/>
      </g>
     </g>
     <g id="text_6">
      <!-- 150 -->
      <defs>
       <path d="M 10.796875 72.90625 
L 49.515625 72.90625 
L 49.515625 64.59375 
L 19.828125 64.59375 
L 19.828125 46.734375 
Q 21.96875 47.46875 24.109375 47.828125 
Q 26.265625 48.1875 28.421875 48.1875 
Q 40.625 48.1875 47.75 41.5 
Q 54.890625 34.8125 54.890625 23.390625 
Q 54.890625 11.625 47.5625 5.09375 
Q 40.234375 -1.421875 26.90625 -1.421875 
Q 22.3125 -1.421875 17.546875 -0.640625 
Q 12.796875 0.140625 7.71875 1.703125 
L 7.71875 11.625 
Q 12.109375 9.234375 16.796875 8.0625 
Q 21.484375 6.890625 26.703125 6.890625 
Q 35.15625 6.890625 40.078125 11.328125 
Q 45.015625 15.765625 45.015625 23.390625 
Q 45.015625 31 40.078125 35.4375 
Q 35.15625 39.890625 26.703125 39.890625 
Q 22.75 39.890625 18.8125 39.015625 
Q 14.890625 38.140625 10.796875 36.28125 
z
" id="DejaVuSans-53"/>
      </defs>
      <g transform="translate(31.5125 103.767892)scale(0.1 -0.1)">
       <use xlink:href="#DejaVuSans-49"/>
       <use x="63.623047" xlink:href="#DejaVuSans-53"/>
       <use x="127.246094" xlink:href="#DejaVuSans-48"/>
      </g>
     </g>
    </g>
    <g id="ytick_2">
     <g id="line2d_7">
      <g>
       <use style="stroke:#000000;stroke-width:0.8;" x="57.6" xlink:href="#m7a189913a3" y="79.790239"/>
      </g>
     </g>
     <g id="text_7">
      <!-- 200 -->
      <g transform="translate(31.5125 83.589458)scale(0.1 -0.1)">
       <use xlink:href="#DejaVuSans-50"/>
       <use x="63.623047" xlink:href="#DejaVuSans-48"/>
       <use x="127.246094" xlink:href="#DejaVuSans-48"/>
      </g>
     </g>
    </g>
    <g id="ytick_3">
     <g id="line2d_8">
      <g>
       <use style="stroke:#000000;stroke-width:0.8;" x="57.6" xlink:href="#m7a189913a3" y="59.611805"/>
      </g>
     </g>
     <g id="text_8">
      <!-- 250 -->
      <g transform="translate(31.5125 63.411024)scale(0.1 -0.1)">
       <use xlink:href="#DejaVuSans-50"/>
       <use x="63.623047" xlink:href="#DejaVuSans-53"/>
       <use x="127.246094" xlink:href="#DejaVuSans-48"/>
      </g>
     </g>
    </g>
   </g>
   <g id="line2d_9">
    <path clip-path="url(#pb3a6df1184)" d="M 73.832727 116.182588 
L 77.44 115.678047 
L 81.047273 115.171656 
L 84.654545 114.663433 
L 88.261818 114.153396 
L 91.869091 113.641564 
L 95.476364 113.127949 
L 99.083636 112.598077 
L 102.690909 112.081051 
L 106.298182 111.562298 
L 109.905455 111.041832 
L 113.512727 110.51967 
L 117.12 109.995827 
L 120.727273 109.470322 
L 124.334545 108.943165 
L 127.941818 108.412623 
L 131.549091 107.873178 
L 135.156364 107.338999 
L 138.763636 106.803188 
L 142.370909 106.265997 
L 145.978182 105.727243 
L 149.585455 105.186906 
L 153.192727 104.644998 
L 156.8 104.101539 
L 160.407273 103.556534 
L 164.014545 103.010008 
L 167.621818 102.461961 
L 171.229091 101.912412 
L 174.836364 101.361378 
L 178.443636 100.808867 
L 182.050909 100.254889 
L 185.658182 99.699465 
L 189.265455 99.1426 
L 192.872727 98.584312 
L 196.48 98.024608 
L 200.087273 97.4635 
L 203.694545 96.901001 
L 207.301818 96.337128 
L 210.909091 95.854343 
L 214.516364 95.289633 
L 218.123636 94.723567 
L 221.730909 94.156154 
L 225.338182 93.58741 
L 228.945455 93.009084 
L 232.552727 92.437723 
L 236.16 91.865056 
L 239.767273 91.288018 
L 243.374545 90.712746 
L 246.981818 90.136213 
L 250.589091 89.558423 
L 254.196364 88.979377 
L 257.803636 88.399099 
L 261.410909 87.817596 
L 265.018182 87.234873 
L 268.625455 86.650937 
L 272.232727 86.065807 
L 275.84 85.479495 
L 279.447273 84.891994 
L 283.054545 84.303329 
L 286.661818 83.7135 
L 290.269091 83.122526 
L 293.876364 82.5304 
L 297.483636 81.9261 
L 301.090909 81.331764 
L 304.698182 80.736306 
L 308.305455 80.139747 
L 311.912727 79.542091 
L 315.52 78.943346 
L 319.127273 78.343523 
L 322.734545 77.742628 
L 326.341818 77.140674 
L 329.949091 76.537661 
L 333.556364 75.933601 
L 337.163636 75.328507 
L 340.770909 74.722384 
L 344.378182 74.115233 
L 347.985455 73.507072 
L 351.592727 72.897901 
L 355.2 72.287732 
L 358.807273 71.676579 
L 362.414545 71.050405 
L 366.021818 70.437349 
L 369.629091 69.823319 
L 373.236364 69.208335 
L 376.843636 68.592403 
L 380.450909 67.975516 
L 384.058182 67.357699 
L 387.665455 66.738946 
L 391.272727 66.11927 
L 394.88 65.498682 
L 398.487273 64.877183 
" style="fill:none;stroke:#ff0000;stroke-linecap:square;stroke-width:0.8;"/>
   </g>
   <g id="line2d_10">
    <path clip-path="url(#pb3a6df1184)" d="M 73.832727 111.607907 
L 77.44 111.038276 
L 81.047273 110.443533 
L 84.654545 109.869958 
L 88.261818 109.294336 
L 91.869091 108.716685 
L 95.476364 108.137016 
L 99.083636 107.555365 
L 102.690909 106.971738 
L 106.298182 106.386287 
L 109.905455 105.799014 
L 113.512727 105.209832 
L 117.12 105.603542 
L 120.727273 105.014729 
L 124.334545 104.423952 
L 127.941818 103.831223 
L 131.549091 103.236566 
L 135.156364 102.64 
L 138.763636 102.041532 
L 142.370909 101.441192 
L 145.978182 100.838991 
L 149.585455 100.210823 
L 153.192727 99.605138 
L 156.8 98.997648 
L 160.407273 98.388366 
L 164.014545 97.777317 
L 167.621818 97.164506 
L 171.229091 96.54996 
L 174.836364 95.933682 
L 178.443636 95.315699 
L 182.050909 94.693529 
L 185.658182 94.069185 
L 189.265455 93.43298 
L 192.872727 92.805163 
L 196.48 92.175664 
L 200.087273 91.544503 
L 203.694545 90.911698 
L 207.301818 90.277255 
L 210.909091 89.789975 
L 214.516364 89.156523 
L 218.123636 88.512602 
L 221.730909 87.875992 
L 225.338182 87.237817 
L 228.945455 86.59809 
L 232.552727 85.956836 
L 236.16 85.298179 
L 239.767273 84.654 
L 243.374545 84.008325 
L 246.981818 83.361172 
L 250.589091 82.712547 
L 254.196364 82.062462 
L 257.803636 81.410937 
L 261.410909 80.757976 
L 265.018182 80.103593 
L 268.625455 79.447801 
L 272.232727 78.790579 
L 275.84 78.130365 
L 279.447273 77.468752 
L 283.054545 76.805755 
L 286.661818 76.141384 
L 290.269091 75.475652 
L 293.876364 74.808571 
L 297.483636 74.127407 
L 301.090909 73.457685 
L 304.698182 72.786651 
L 308.305455 72.110912 
L 311.912727 71.437224 
L 315.52 70.762249 
L 319.127273 70.086 
L 322.734545 69.408481 
L 326.341818 68.729713 
L 329.949091 68.049701 
L 333.556364 67.368451 
L 337.163636 66.685975 
L 340.770909 66.002287 
L 344.378182 65.317391 
L 347.985455 64.631301 
L 351.592727 63.944023 
L 355.2 63.255562 
L 358.807273 62.565937 
L 362.414545 61.875148 
L 366.021818 61.183214 
L 369.629091 60.490135 
L 373.236364 59.778914 
L 376.843636 59.083636 
L 380.450909 58.38725 
L 384.058182 57.689755 
L 387.665455 56.991158 
L 391.272727 56.291477 
L 394.88 55.590725 
L 398.487273 54.888889 
" style="fill:none;stroke:#ff0000;stroke-linecap:square;stroke-width:0.8;"/>
   </g>
   <g id="line2d_11">
    <path clip-path="url(#pb3a6df1184)" d="M 73.832727 107.922719 
L 77.44 107.295339 
L 81.047273 106.640254 
L 84.654545 106.008182 
L 88.261818 105.373708 
L 91.869091 104.736851 
L 95.476364 104.097635 
L 99.083636 103.456091 
L 102.690909 102.812239 
L 106.298182 102.166095 
L 109.905455 101.517692 
L 113.512727 100.867041 
L 117.12 100.214173 
L 120.727273 99.527245 
L 124.334545 98.870289 
L 127.941818 98.211183 
L 131.549091 97.549946 
L 135.156364 96.886591 
L 138.763636 96.221149 
L 142.370909 95.553637 
L 145.978182 94.884069 
L 149.585455 94.212468 
L 153.192727 93.538848 
L 156.8 92.863239 
L 160.407273 92.146974 
L 164.014545 92.606772 
L 167.621818 91.927677 
L 171.229091 91.246556 
L 174.836364 90.563428 
L 178.443636 89.878298 
L 182.050909 89.191192 
L 185.658182 88.502134 
L 189.265455 87.811124 
L 192.872727 87.118198 
L 196.48 86.387438 
L 200.087273 85.690996 
L 203.694545 84.992683 
L 207.301818 84.292515 
L 210.909091 83.168544 
L 214.516364 82.464614 
L 218.123636 81.757113 
L 221.730909 81.047844 
L 225.338182 80.336833 
L 228.945455 79.624035 
L 232.552727 78.909471 
L 236.16 78.193145 
L 239.767273 77.475083 
L 243.374545 76.755296 
L 246.981818 76.011968 
L 250.589091 75.28901 
L 254.196364 75.239783 
L 257.803636 74.515446 
L 261.410909 73.789667 
L 265.018182 73.062343 
L 268.625455 72.3334 
L 272.232727 71.59049 
L 275.84 70.858301 
L 279.447273 70.124715 
L 283.054545 69.38981 
L 286.661818 68.65333 
L 290.269091 67.915291 
L 293.876364 67.15254 
L 297.483636 66.411582 
L 301.090909 65.669104 
L 304.698182 64.925116 
L 308.305455 64.179639 
L 311.912727 63.432671 
L 315.52 62.684237 
L 319.127273 61.934345 
L 322.734545 61.183005 
L 326.341818 60.430224 
L 329.949091 59.676026 
L 333.556364 58.920407 
L 337.163636 58.161511 
L 340.770909 57.401001 
L 344.378182 56.639094 
L 347.985455 55.875789 
L 351.592727 55.111117 
L 355.2 54.345078 
L 358.807273 53.577685 
L 362.414545 52.791152 
L 366.021818 52.021122 
L 369.629091 51.249775 
L 373.236364 50.474684 
L 376.843636 49.700639 
L 380.450909 48.925314 
L 384.058182 48.148696 
L 387.665455 47.370809 
L 391.272727 46.591665 
L 394.88 45.811278 
L 398.487273 45.029647 
" style="fill:none;stroke:#ff0000;stroke-linecap:square;stroke-width:0.8;"/>
   </g>
   <g id="patch_3">
    <path d="M 57.6 119.740235 
L 57.6 41.472 
" style="fill:none;stroke:#000000;stroke-linecap:square;stroke-linejoin:miter;stroke-width:0.8;"/>
   </g>
   <g id="patch_4">
    <path d="M 414.72 119.740235 
L 414.72 41.472 
" style="fill:none;stroke:#000000;stroke-linecap:square;stroke-linejoin:miter;stroke-width:0.8;"/>
   </g>
   <g id="patch_5">
    <path d="M 57.6 119.740235 
L 414.72 119.740235 
" style="fill:none;stroke:#000000;stroke-linecap:square;stroke-linejoin:miter;stroke-width:0.8;"/>
   </g>
   <g id="patch_6">
    <path d="M 57.6 41.472 
L 414.72 41.472 
" style="fill:none;stroke:#000000;stroke-linecap:square;stroke-linejoin:miter;stroke-width:0.8;"/>
   </g>
   <g id="text_9">
    <!-- F$_{tang}$ -->
    <defs>
     <path d="M 9.8125 72.90625 
L 51.703125 72.90625 
L 51.703125 64.59375 
L 19.671875 64.59375 
L 19.671875 43.109375 
L 48.578125 43.109375 
L 48.578125 34.8125 
L 19.671875 34.8125 
L 19.671875 0 
L 9.8125 0 
z
" id="DejaVuSans-70"/>
     <path d="M 42.28125 54.6875 
L 40.921875 47.703125 
L 23 47.703125 
L 17.1875 18.015625 
Q 16.890625 16.359375 16.75 15.234375 
Q 16.609375 14.109375 16.609375 13.484375 
Q 16.609375 10.359375 18.484375 8.9375 
Q 20.359375 7.515625 24.515625 7.515625 
L 33.59375 7.515625 
L 32.078125 0 
L 23.484375 0 
Q 15.484375 0 11.546875 3.125 
Q 7.625 6.25 7.625 12.59375 
Q 7.625 13.71875 7.765625 15.0625 
Q 7.90625 16.40625 8.203125 18.015625 
L 14.015625 47.703125 
L 6.390625 47.703125 
L 7.8125 54.6875 
L 15.28125 54.6875 
L 18.3125 70.21875 
L 27.296875 70.21875 
L 24.3125 54.6875 
z
" id="DejaVuSans-Oblique-116"/>
     <path d="M 53.71875 31.203125 
L 47.609375 0 
L 38.625 0 
L 40.28125 8.296875 
Q 36.328125 3.421875 31.265625 1 
Q 26.21875 -1.421875 20.015625 -1.421875 
Q 13.03125 -1.421875 8.5625 2.84375 
Q 4.109375 7.125 4.109375 13.8125 
Q 4.109375 23.390625 11.75 28.953125 
Q 19.390625 34.515625 32.8125 34.515625 
L 45.3125 34.515625 
L 45.796875 36.921875 
Q 45.90625 37.3125 45.953125 37.765625 
Q 46 38.234375 46 39.203125 
Q 46 43.5625 42.453125 45.96875 
Q 38.921875 48.390625 32.515625 48.390625 
Q 28.125 48.390625 23.5 47.265625 
Q 18.890625 46.140625 14.015625 43.890625 
L 15.578125 52.203125 
Q 20.65625 54.109375 25.515625 55.046875 
Q 30.375 56 34.90625 56 
Q 44.578125 56 49.625 51.796875 
Q 54.6875 47.609375 54.6875 39.59375 
Q 54.6875 37.984375 54.4375 35.8125 
Q 54.203125 33.640625 53.71875 31.203125 
z
M 44 27.484375 
L 35.015625 27.484375 
Q 23.96875 27.484375 18.671875 24.53125 
Q 13.375 21.578125 13.375 15.375 
Q 13.375 11.078125 16.078125 8.640625 
Q 18.796875 6.203125 23.578125 6.203125 
Q 30.90625 6.203125 36.375 11.453125 
Q 41.84375 16.703125 43.609375 25.484375 
z
" id="DejaVuSans-Oblique-97"/>
     <path d="M 55.71875 33.015625 
L 49.3125 0 
L 40.28125 0 
L 46.6875 32.671875 
Q 47.125 34.96875 47.359375 36.71875 
Q 47.609375 38.484375 47.609375 39.5 
Q 47.609375 43.609375 45.015625 45.890625 
Q 42.4375 48.1875 37.796875 48.1875 
Q 30.5625 48.1875 25.34375 43.375 
Q 20.125 38.578125 18.5 30.328125 
L 12.5 0 
L 3.515625 0 
L 14.109375 54.6875 
L 23.09375 54.6875 
L 21.296875 46.09375 
Q 25.046875 50.828125 30.3125 53.40625 
Q 35.59375 56 41.40625 56 
Q 48.640625 56 52.609375 52.09375 
Q 56.59375 48.1875 56.59375 41.109375 
Q 56.59375 39.359375 56.375 37.359375 
Q 56.15625 35.359375 55.71875 33.015625 
z
" id="DejaVuSans-Oblique-110"/>
     <path d="M 59.625 54.6875 
L 50.296875 6.78125 
Q 47.609375 -7.125 40.015625 -13.953125 
Q 32.421875 -20.796875 19.578125 -20.796875 
Q 14.84375 -20.796875 10.78125 -20.09375 
Q 6.734375 -19.390625 3.21875 -17.921875 
L 4.890625 -9.1875 
Q 8.203125 -11.328125 11.90625 -12.34375 
Q 15.625 -13.375 19.828125 -13.375 
Q 28.375 -13.375 33.859375 -8.703125 
Q 39.359375 -4.046875 41.109375 4.6875 
L 41.890625 8.796875 
Q 38.140625 4.5 33.15625 2.25 
Q 28.171875 0 22.40625 0 
Q 14.109375 0 9.34375 5.484375 
Q 4.59375 10.984375 4.59375 20.609375 
Q 4.59375 28.171875 7.46875 35.421875 
Q 10.359375 42.671875 15.578125 48.296875 
Q 19.046875 52 23.65625 54 
Q 28.265625 56 33.296875 56 
Q 38.8125 56 42.90625 53.4375 
Q 47.015625 50.875 49.03125 46.1875 
L 50.59375 54.6875 
z
M 46.09375 34.625 
Q 46.09375 41.265625 42.96875 44.875 
Q 39.84375 48.484375 34.078125 48.484375 
Q 30.515625 48.484375 27.296875 47.0625 
Q 24.078125 45.65625 21.78125 43.109375 
Q 18.0625 38.921875 15.984375 33.234375 
Q 13.921875 27.546875 13.921875 21.484375 
Q 13.921875 14.75 17.0625 11.125 
Q 20.21875 7.515625 26.125 7.515625 
Q 34.671875 7.515625 40.375 15.25 
Q 46.09375 23 46.09375 34.625 
z
" id="DejaVuSans-Oblique-103"/>
    </defs>
    <g transform="translate(225.11 51.398824)scale(0.1 -0.1)">
     <use transform="translate(0 0.09375)" xlink:href="#DejaVuSans-70"/>
     <use transform="translate(58.476562 -16.3125)scale(0.7)" xlink:href="#DejaVuSans-Oblique-116"/>
     <use transform="translate(85.922852 -16.3125)scale(0.7)" xlink:href="#DejaVuSans-Oblique-97"/>
     <use transform="translate(128.818359 -16.3125)scale(0.7)" xlink:href="#DejaVuSans-Oblique-110"/>
     <use transform="translate(173.183594 -16.3125)scale(0.7)" xlink:href="#DejaVuSans-Oblique-103"/>
    </g>
   </g>
  </g>
  <g id="axes_2">
   <g id="patch_7">
    <path d="M 57.6 213.662118 
L 414.72 213.662118 
L 414.72 135.393882 
L 57.6 135.393882 
z
" style="fill:#ffffff;"/>
   </g>
   <g id="matplotlib.axis_3">
    <g id="xtick_6">
     <g id="line2d_12">
      <g>
       <use style="stroke:#000000;stroke-width:0.8;" x="73.832727" xlink:href="#m7067232c26" y="213.662118"/>
      </g>
     </g>
     <g id="text_10">
      <!-- 1.0 -->
      <g transform="translate(65.881165 228.260555)scale(0.1 -0.1)">
       <use xlink:href="#DejaVuSans-49"/>
       <use x="63.623047" xlink:href="#DejaVuSans-46"/>
       <use x="95.410156" xlink:href="#DejaVuSans-48"/>
      </g>
     </g>
    </g>
    <g id="xtick_7">
     <g id="line2d_13">
      <g>
       <use style="stroke:#000000;stroke-width:0.8;" x="145.978182" xlink:href="#m7067232c26" y="213.662118"/>
      </g>
     </g>
     <g id="text_11">
      <!-- 1.2 -->
      <g transform="translate(138.026619 228.260555)scale(0.1 -0.1)">
       <use xlink:href="#DejaVuSans-49"/>
       <use x="63.623047" xlink:href="#DejaVuSans-46"/>
       <use x="95.410156" xlink:href="#DejaVuSans-50"/>
      </g>
     </g>
    </g>
    <g id="xtick_8">
     <g id="line2d_14">
      <g>
       <use style="stroke:#000000;stroke-width:0.8;" x="218.123636" xlink:href="#m7067232c26" y="213.662118"/>
      </g>
     </g>
     <g id="text_12">
      <!-- 1.4 -->
      <g transform="translate(210.172074 228.260555)scale(0.1 -0.1)">
       <use xlink:href="#DejaVuSans-49"/>
       <use x="63.623047" xlink:href="#DejaVuSans-46"/>
       <use x="95.410156" xlink:href="#DejaVuSans-52"/>
      </g>
     </g>
    </g>
    <g id="xtick_9">
     <g id="line2d_15">
      <g>
       <use style="stroke:#000000;stroke-width:0.8;" x="290.269091" xlink:href="#m7067232c26" y="213.662118"/>
      </g>
     </g>
     <g id="text_13">
      <!-- 1.6 -->
      <g transform="translate(282.317528 228.260555)scale(0.1 -0.1)">
       <use xlink:href="#DejaVuSans-49"/>
       <use x="63.623047" xlink:href="#DejaVuSans-46"/>
       <use x="95.410156" xlink:href="#DejaVuSans-54"/>
      </g>
     </g>
    </g>
    <g id="xtick_10">
     <g id="line2d_16">
      <g>
       <use style="stroke:#000000;stroke-width:0.8;" x="362.414545" xlink:href="#m7067232c26" y="213.662118"/>
      </g>
     </g>
     <g id="text_14">
      <!-- 1.8 -->
      <g transform="translate(354.462983 228.260555)scale(0.1 -0.1)">
       <use xlink:href="#DejaVuSans-49"/>
       <use x="63.623047" xlink:href="#DejaVuSans-46"/>
       <use x="95.410156" xlink:href="#DejaVuSans-56"/>
      </g>
     </g>
    </g>
   </g>
   <g id="matplotlib.axis_4">
    <g id="ytick_4">
     <g id="line2d_17">
      <g>
       <use style="stroke:#000000;stroke-width:0.8;" x="57.6" xlink:href="#m7a189913a3" y="205.487177"/>
      </g>
     </g>
     <g id="text_15">
      <!-- 500 -->
      <g transform="translate(31.5125 209.286396)scale(0.1 -0.1)">
       <use xlink:href="#DejaVuSans-53"/>
       <use x="63.623047" xlink:href="#DejaVuSans-48"/>
       <use x="127.246094" xlink:href="#DejaVuSans-48"/>
      </g>
     </g>
    </g>
    <g id="ytick_5">
     <g id="line2d_18">
      <g>
       <use style="stroke:#000000;stroke-width:0.8;" x="57.6" xlink:href="#m7a189913a3" y="175.826965"/>
      </g>
     </g>
     <g id="text_16">
      <!-- 750 -->
      <defs>
       <path d="M 8.203125 72.90625 
L 55.078125 72.90625 
L 55.078125 68.703125 
L 28.609375 0 
L 18.3125 0 
L 43.21875 64.59375 
L 8.203125 64.59375 
z
" id="DejaVuSans-55"/>
      </defs>
      <g transform="translate(31.5125 179.626184)scale(0.1 -0.1)">
       <use xlink:href="#DejaVuSans-55"/>
       <use x="63.623047" xlink:href="#DejaVuSans-53"/>
       <use x="127.246094" xlink:href="#DejaVuSans-48"/>
      </g>
     </g>
    </g>
    <g id="ytick_6">
     <g id="line2d_19">
      <g>
       <use style="stroke:#000000;stroke-width:0.8;" x="57.6" xlink:href="#m7a189913a3" y="146.166753"/>
      </g>
     </g>
     <g id="text_17">
      <!-- 1000 -->
      <g transform="translate(25.15 149.965971)scale(0.1 -0.1)">
       <use xlink:href="#DejaVuSans-49"/>
       <use x="63.623047" xlink:href="#DejaVuSans-48"/>
       <use x="127.246094" xlink:href="#DejaVuSans-48"/>
       <use x="190.869141" xlink:href="#DejaVuSans-48"/>
      </g>
     </g>
    </g>
   </g>
   <g id="line2d_20">
    <path clip-path="url(#p3aeede644c)" d="M 73.832727 210.104471 
L 77.44 209.638655 
L 81.047273 209.173255 
L 84.654545 208.708265 
L 88.261818 208.24368 
L 91.869091 207.779497 
L 95.476364 207.315712 
L 99.083636 206.854795 
L 102.690909 206.391763 
L 106.298182 205.929111 
L 109.905455 205.466833 
L 113.512727 205.004924 
L 117.12 204.54338 
L 120.727273 204.082198 
L 124.334545 203.621372 
L 127.941818 203.161197 
L 131.549091 202.70205 
L 135.156364 202.242628 
L 138.763636 201.783554 
L 142.370909 201.324798 
L 145.978182 200.866383 
L 149.585455 200.4083 
L 153.192727 199.950544 
L 156.8 199.493121 
L 160.407273 199.036016 
L 164.014545 198.579237 
L 167.621818 198.122769 
L 171.229091 197.666613 
L 174.836364 197.210769 
L 178.443636 196.755235 
L 182.050909 196.299999 
L 185.658182 195.845066 
L 189.265455 195.390431 
L 192.872727 194.936092 
L 196.48 194.482044 
L 200.087273 194.028277 
L 203.694545 193.574807 
L 207.301818 193.121613 
L 210.909091 192.430652 
L 214.516364 191.976914 
L 218.123636 191.523452 
L 221.730909 191.070265 
L 225.338182 190.617345 
L 228.945455 190.165657 
L 232.552727 189.713259 
L 236.16 189.261129 
L 239.767273 188.809456 
L 243.374545 188.35784 
L 246.981818 187.906485 
L 250.589091 187.455376 
L 254.196364 187.00452 
L 257.803636 186.553911 
L 261.410909 186.103548 
L 265.018182 185.653431 
L 268.625455 185.203553 
L 272.232727 184.753914 
L 275.84 184.304514 
L 279.447273 183.855346 
L 283.054545 183.406409 
L 286.661818 182.957711 
L 290.269091 182.509238 
L 293.876364 182.060997 
L 297.483636 181.614276 
L 301.090909 181.166477 
L 304.698182 180.718901 
L 308.305455 180.271551 
L 311.912727 179.82441 
L 315.52 179.377494 
L 319.127273 178.930787 
L 322.734545 178.484298 
L 326.341818 178.038019 
L 329.949091 177.59195 
L 333.556364 177.146091 
L 337.163636 176.700442 
L 340.770909 176.254996 
L 344.378182 175.809752 
L 347.985455 175.364712 
L 351.592727 174.919874 
L 355.2 174.475238 
L 358.807273 174.030791 
L 362.414545 173.588227 
L 366.021818 173.144178 
L 369.629091 172.700318 
L 373.236364 172.256653 
L 376.843636 171.813176 
L 380.450909 171.369895 
L 384.058182 170.926795 
L 387.665455 170.483891 
L 391.272727 170.041167 
L 394.88 169.598632 
L 398.487273 169.156277 
" style="fill:none;stroke:#ff0000;stroke-linecap:square;stroke-width:0.8;"/>
   </g>
   <g id="line2d_21">
    <path clip-path="url(#p3aeede644c)" d="M 73.832727 202.37027 
L 77.44 201.828906 
L 81.047273 201.290344 
L 84.654545 200.749798 
L 88.261818 200.209658 
L 91.869091 199.66993 
L 95.476364 199.130594 
L 99.083636 198.591656 
L 102.690909 198.053101 
L 106.298182 197.514931 
L 109.905455 196.977151 
L 113.512727 196.439741 
L 117.12 195.614765 
L 120.727273 195.075378 
L 124.334545 194.536353 
L 127.941818 193.997683 
L 131.549091 193.459375 
L 135.156364 192.921414 
L 138.763636 192.383794 
L 142.370909 191.846521 
L 145.978182 191.309588 
L 149.585455 190.776776 
L 153.192727 190.240474 
L 156.8 189.704505 
L 160.407273 189.168854 
L 164.014545 188.633529 
L 167.621818 188.098516 
L 171.229091 187.563814 
L 174.836364 187.029416 
L 178.443636 186.495329 
L 182.050909 185.961938 
L 185.658182 185.428923 
L 189.265455 184.897059 
L 192.872727 184.36466 
L 196.48 183.83255 
L 200.087273 183.300737 
L 203.694545 182.769221 
L 207.301818 182.237988 
L 210.909091 181.435214 
L 214.516364 180.903112 
L 218.123636 180.372255 
L 221.730909 179.840703 
L 225.338182 179.309418 
L 228.945455 178.778402 
L 232.552727 178.247647 
L 236.16 177.719454 
L 239.767273 177.18922 
L 243.374545 176.659239 
L 246.981818 176.129512 
L 250.589091 175.600038 
L 254.196364 175.070818 
L 257.803636 174.541843 
L 261.410909 174.013115 
L 265.018182 173.484641 
L 268.625455 172.956398 
L 272.232727 172.428409 
L 275.84 171.900904 
L 279.447273 171.373639 
L 283.054545 170.84662 
L 286.661818 170.319825 
L 290.269091 169.79327 
L 293.876364 169.266946 
L 297.483636 168.74228 
L 301.090909 168.216412 
L 304.698182 167.690769 
L 308.305455 167.16556 
L 311.912727 166.640366 
L 315.52 166.115403 
L 319.127273 165.590651 
L 322.734545 165.066123 
L 326.341818 164.541804 
L 329.949091 164.017704 
L 333.556364 163.49382 
L 337.163636 162.970139 
L 340.770909 162.446675 
L 344.378182 161.923415 
L 347.985455 161.400364 
L 351.592727 160.877523 
L 355.2 160.354877 
L 358.807273 159.832435 
L 362.414545 159.310195 
L 366.021818 158.788158 
L 369.629091 158.266316 
L 373.236364 157.746611 
L 376.843636 157.22516 
L 380.450909 156.703898 
L 384.058182 156.182831 
L 387.665455 155.661953 
L 391.272727 155.141262 
L 394.88 154.620768 
L 398.487273 154.100454 
" style="fill:none;stroke:#ff0000;stroke-linecap:square;stroke-width:0.8;"/>
   </g>
   <g id="line2d_22">
    <path clip-path="url(#p3aeede644c)" d="M 73.832727 194.321932 
L 77.44 193.702 
L 81.047273 193.085052 
L 84.654545 192.46596 
L 88.261818 191.847281 
L 91.869091 191.229015 
L 95.476364 190.611154 
L 99.083636 189.993692 
L 102.690909 189.37662 
L 106.298182 188.759947 
L 109.905455 188.14365 
L 113.512727 187.527738 
L 117.12 186.912201 
L 120.727273 186.300394 
L 124.334545 185.685575 
L 127.941818 185.071117 
L 131.549091 184.457008 
L 135.156364 183.84326 
L 138.763636 183.229853 
L 142.370909 182.616793 
L 145.978182 182.004066 
L 149.585455 181.39168 
L 153.192727 180.779627 
L 156.8 180.167899 
L 160.407273 179.560741 
L 164.014545 178.619015 
L 167.621818 178.005636 
L 171.229091 177.392569 
L 174.836364 176.779821 
L 178.443636 176.167384 
L 182.050909 175.555258 
L 185.658182 174.943437 
L 189.265455 174.331919 
L 192.872727 173.720699 
L 196.48 173.115177 
L 200.087273 172.504521 
L 203.694545 171.894148 
L 207.301818 171.284065 
L 210.909091 170.544261 
L 214.516364 169.935119 
L 218.123636 169.326338 
L 221.730909 168.717819 
L 225.338182 168.109546 
L 228.945455 167.501547 
L 232.552727 166.893817 
L 236.16 166.286355 
L 239.767273 165.679161 
L 243.374545 165.072227 
L 246.981818 164.468168 
L 250.589091 163.861734 
L 254.196364 163.054391 
L 257.803636 162.447153 
L 261.410909 161.84014 
L 265.018182 161.233351 
L 268.625455 160.626801 
L 272.232727 160.021808 
L 275.84 159.415751 
L 279.447273 158.809918 
L 283.054545 158.204316 
L 286.661818 157.598947 
L 290.269091 156.993816 
L 293.876364 156.392183 
L 297.483636 155.787502 
L 301.090909 155.183044 
L 304.698182 154.578826 
L 308.305455 153.974825 
L 311.912727 153.371049 
L 315.52 152.767497 
L 319.127273 152.164169 
L 322.734545 151.561052 
L 326.341818 150.958159 
L 329.949091 150.355476 
L 333.556364 149.753017 
L 337.163636 149.151029 
L 340.770909 148.549295 
L 344.378182 147.947763 
L 347.985455 147.346448 
L 351.592727 146.745344 
L 355.2 146.14445 
L 358.807273 145.543758 
L 362.414545 144.945231 
L 366.021818 144.344945 
L 369.629091 143.744869 
L 373.236364 143.145133 
L 376.843636 142.545455 
L 380.450909 141.94598 
L 384.058182 141.346707 
L 387.665455 140.747623 
L 391.272727 140.148727 
L 394.88 139.550034 
L 398.487273 138.951529 
" style="fill:none;stroke:#ff0000;stroke-linecap:square;stroke-width:0.8;"/>
   </g>
   <g id="patch_8">
    <path d="M 57.6 213.662118 
L 57.6 135.393882 
" style="fill:none;stroke:#000000;stroke-linecap:square;stroke-linejoin:miter;stroke-width:0.8;"/>
   </g>
   <g id="patch_9">
    <path d="M 414.72 213.662118 
L 414.72 135.393882 
" style="fill:none;stroke:#000000;stroke-linecap:square;stroke-linejoin:miter;stroke-width:0.8;"/>
   </g>
   <g id="patch_10">
    <path d="M 57.6 213.662118 
L 414.72 213.662118 
" style="fill:none;stroke:#000000;stroke-linecap:square;stroke-linejoin:miter;stroke-width:0.8;"/>
   </g>
   <g id="patch_11">
    <path d="M 57.6 135.393882 
L 414.72 135.393882 
" style="fill:none;stroke:#000000;stroke-linecap:square;stroke-linejoin:miter;stroke-width:0.8;"/>
   </g>
   <g id="text_18">
    <!-- F$_{normal}$ -->
    <defs>
     <path d="M 25.390625 -1.421875 
Q 15.765625 -1.421875 10.171875 4.515625 
Q 4.59375 10.453125 4.59375 20.703125 
Q 4.59375 26.65625 6.515625 32.828125 
Q 8.453125 39.015625 11.53125 43.21875 
Q 16.359375 49.75 22.3125 52.875 
Q 28.265625 56 35.796875 56 
Q 45.125 56 50.859375 50.1875 
Q 56.59375 44.390625 56.59375 35.015625 
Q 56.59375 28.515625 54.6875 22.0625 
Q 52.78125 15.625 49.703125 11.375 
Q 44.921875 4.828125 38.96875 1.703125 
Q 33.015625 -1.421875 25.390625 -1.421875 
z
M 13.921875 21 
Q 13.921875 13.578125 17.015625 9.890625 
Q 20.125 6.203125 26.421875 6.203125 
Q 35.453125 6.203125 41.375 14.078125 
Q 47.3125 21.96875 47.3125 34.078125 
Q 47.3125 41.15625 44.140625 44.765625 
Q 40.96875 48.390625 34.8125 48.390625 
Q 29.734375 48.390625 25.78125 46.015625 
Q 21.828125 43.65625 18.703125 38.8125 
Q 16.40625 35.203125 15.15625 30.5625 
Q 13.921875 25.921875 13.921875 21 
z
" id="DejaVuSans-Oblique-111"/>
     <path d="M 44.578125 46.390625 
Q 43.21875 47.125 41.453125 47.515625 
Q 39.703125 47.90625 37.703125 47.90625 
Q 30.515625 47.90625 25.140625 42.453125 
Q 19.78125 37.015625 18.015625 27.875 
L 12.5 0 
L 3.515625 0 
L 14.203125 54.6875 
L 23.1875 54.6875 
L 21.484375 46.1875 
Q 25.046875 50.921875 30 53.453125 
Q 34.96875 56 40.578125 56 
Q 42.046875 56 43.453125 55.828125 
Q 44.875 55.671875 46.296875 55.28125 
z
" id="DejaVuSans-Oblique-114"/>
     <path d="M 89.796875 33.015625 
L 83.40625 0 
L 74.421875 0 
L 80.71875 32.71875 
Q 81.109375 34.8125 81.296875 36.328125 
Q 81.5 37.84375 81.5 38.921875 
Q 81.5 43.3125 79.046875 45.75 
Q 76.609375 48.1875 72.21875 48.1875 
Q 65.671875 48.1875 60.546875 43.28125 
Q 55.421875 38.375 53.90625 30.515625 
L 47.90625 0 
L 38.921875 0 
L 45.3125 32.71875 
Q 45.703125 34.515625 45.890625 36.046875 
Q 46.09375 37.59375 46.09375 38.8125 
Q 46.09375 43.265625 43.65625 45.71875 
Q 41.21875 48.1875 36.921875 48.1875 
Q 30.28125 48.1875 25.140625 43.28125 
Q 20.015625 38.375 18.5 30.515625 
L 12.5 0 
L 3.515625 0 
L 14.203125 54.6875 
L 23.1875 54.6875 
L 21.484375 46.1875 
Q 25.140625 50.984375 30.046875 53.484375 
Q 34.96875 56 40.578125 56 
Q 46.53125 56 50.359375 52.875 
Q 54.203125 49.75 54.984375 44.1875 
Q 59.078125 49.953125 64.46875 52.96875 
Q 69.875 56 75.875 56 
Q 82.90625 56 86.734375 51.953125 
Q 90.578125 47.90625 90.578125 40.484375 
Q 90.578125 38.875 90.375 36.9375 
Q 90.1875 35.015625 89.796875 33.015625 
z
" id="DejaVuSans-Oblique-109"/>
     <path d="M 18.3125 75.984375 
L 27.296875 75.984375 
L 12.5 0 
L 3.515625 0 
z
" id="DejaVuSans-Oblique-108"/>
    </defs>
    <g transform="translate(220.76 145.980081)scale(0.1 -0.1)">
     <use transform="translate(0 0.09375)" xlink:href="#DejaVuSans-70"/>
     <use transform="translate(58.476562 -16.3125)scale(0.7)" xlink:href="#DejaVuSans-Oblique-110"/>
     <use transform="translate(102.841797 -16.3125)scale(0.7)" xlink:href="#DejaVuSans-Oblique-111"/>
     <use transform="translate(145.668945 -16.3125)scale(0.7)" xlink:href="#DejaVuSans-Oblique-114"/>
     <use transform="translate(174.448242 -16.3125)scale(0.7)" xlink:href="#DejaVuSans-Oblique-109"/>
     <use transform="translate(242.636719 -16.3125)scale(0.7)" xlink:href="#DejaVuSans-Oblique-97"/>
     <use transform="translate(285.532227 -16.3125)scale(0.7)" xlink:href="#DejaVuSans-Oblique-108"/>
    </g>
   </g>
  </g>
  <g id="axes_3">
   <g id="patch_12">
    <path d="M 57.6 307.584 
L 414.72 307.584 
L 414.72 229.315765 
L 57.6 229.315765 
z
" style="fill:#ffffff;"/>
   </g>
   <g id="matplotlib.axis_5">
    <g id="xtick_11">
     <g id="line2d_23">
      <g>
       <use style="stroke:#000000;stroke-width:0.8;" x="73.832727" xlink:href="#m7067232c26" y="307.584"/>
      </g>
     </g>
     <g id="text_19">
      <!-- 1.0 -->
      <g transform="translate(65.881165 322.182437)scale(0.1 -0.1)">
       <use xlink:href="#DejaVuSans-49"/>
       <use x="63.623047" xlink:href="#DejaVuSans-46"/>
       <use x="95.410156" xlink:href="#DejaVuSans-48"/>
      </g>
     </g>
    </g>
    <g id="xtick_12">
     <g id="line2d_24">
      <g>
       <use style="stroke:#000000;stroke-width:0.8;" x="145.978182" xlink:href="#m7067232c26" y="307.584"/>
      </g>
     </g>
     <g id="text_20">
      <!-- 1.2 -->
      <g transform="translate(138.026619 322.182437)scale(0.1 -0.1)">
       <use xlink:href="#DejaVuSans-49"/>
       <use x="63.623047" xlink:href="#DejaVuSans-46"/>
       <use x="95.410156" xlink:href="#DejaVuSans-50"/>
      </g>
     </g>
    </g>
    <g id="xtick_13">
     <g id="line2d_25">
      <g>
       <use style="stroke:#000000;stroke-width:0.8;" x="218.123636" xlink:href="#m7067232c26" y="307.584"/>
      </g>
     </g>
     <g id="text_21">
      <!-- 1.4 -->
      <g transform="translate(210.172074 322.182437)scale(0.1 -0.1)">
       <use xlink:href="#DejaVuSans-49"/>
       <use x="63.623047" xlink:href="#DejaVuSans-46"/>
       <use x="95.410156" xlink:href="#DejaVuSans-52"/>
      </g>
     </g>
    </g>
    <g id="xtick_14">
     <g id="line2d_26">
      <g>
       <use style="stroke:#000000;stroke-width:0.8;" x="290.269091" xlink:href="#m7067232c26" y="307.584"/>
      </g>
     </g>
     <g id="text_22">
      <!-- 1.6 -->
      <g transform="translate(282.317528 322.182437)scale(0.1 -0.1)">
       <use xlink:href="#DejaVuSans-49"/>
       <use x="63.623047" xlink:href="#DejaVuSans-46"/>
       <use x="95.410156" xlink:href="#DejaVuSans-54"/>
      </g>
     </g>
    </g>
    <g id="xtick_15">
     <g id="line2d_27">
      <g>
       <use style="stroke:#000000;stroke-width:0.8;" x="362.414545" xlink:href="#m7067232c26" y="307.584"/>
      </g>
     </g>
     <g id="text_23">
      <!-- 1.8 -->
      <g transform="translate(354.462983 322.182437)scale(0.1 -0.1)">
       <use xlink:href="#DejaVuSans-49"/>
       <use x="63.623047" xlink:href="#DejaVuSans-46"/>
       <use x="95.410156" xlink:href="#DejaVuSans-56"/>
      </g>
     </g>
    </g>
   </g>
   <g id="matplotlib.axis_6">
    <g id="ytick_7">
     <g id="line2d_28">
      <g>
       <use style="stroke:#000000;stroke-width:0.8;" x="57.6" xlink:href="#m7a189913a3" y="297.357429"/>
      </g>
     </g>
     <g id="text_24">
      <!-- 500 -->
      <g transform="translate(31.5125 301.156648)scale(0.1 -0.1)">
       <use xlink:href="#DejaVuSans-53"/>
       <use x="63.623047" xlink:href="#DejaVuSans-48"/>
       <use x="127.246094" xlink:href="#DejaVuSans-48"/>
      </g>
     </g>
    </g>
    <g id="ytick_8">
     <g id="line2d_29">
      <g>
       <use style="stroke:#000000;stroke-width:0.8;" x="57.6" xlink:href="#m7a189913a3" y="268.658177"/>
      </g>
     </g>
     <g id="text_25">
      <!-- 600 -->
      <g transform="translate(31.5125 272.457396)scale(0.1 -0.1)">
       <use xlink:href="#DejaVuSans-54"/>
       <use x="63.623047" xlink:href="#DejaVuSans-48"/>
       <use x="127.246094" xlink:href="#DejaVuSans-48"/>
      </g>
     </g>
    </g>
    <g id="ytick_9">
     <g id="line2d_30">
      <g>
       <use style="stroke:#000000;stroke-width:0.8;" x="57.6" xlink:href="#m7a189913a3" y="239.958925"/>
      </g>
     </g>
     <g id="text_26">
      <!-- 700 -->
      <g transform="translate(31.5125 243.758144)scale(0.1 -0.1)">
       <use xlink:href="#DejaVuSans-55"/>
       <use x="63.623047" xlink:href="#DejaVuSans-48"/>
       <use x="127.246094" xlink:href="#DejaVuSans-48"/>
      </g>
     </g>
    </g>
   </g>
   <g id="line2d_31">
    <path clip-path="url(#pb87ffb31d9)" d="M 73.832727 304.026353 
L 77.44 303.293886 
L 81.047273 302.565553 
L 84.654545 301.841311 
L 88.261818 301.121123 
L 91.869091 300.404947 
L 95.476364 299.692738 
L 99.083636 298.989541 
L 102.690909 298.285075 
L 106.298182 297.584471 
L 109.905455 296.887686 
L 113.512727 296.194692 
L 117.12 295.505448 
L 120.727273 294.819917 
L 124.334545 294.138082 
L 127.941818 293.460451 
L 131.549091 292.789441 
L 135.156364 292.119132 
L 138.763636 291.452362 
L 142.370909 290.789235 
L 145.978182 290.129611 
L 149.585455 289.473455 
L 153.192727 288.82075 
L 156.8 288.171444 
L 160.407273 287.525535 
L 164.014545 286.88299 
L 167.621818 286.243791 
L 171.229091 285.607885 
L 174.836364 284.975271 
L 178.443636 284.345916 
L 182.050909 283.719784 
L 185.658182 283.096875 
L 189.265455 282.477154 
L 192.872727 281.860604 
L 196.48 281.247189 
L 200.087273 280.636892 
L 203.694545 280.029713 
L 207.301818 279.425599 
L 210.909091 277.550426 
L 214.516364 276.947784 
L 218.123636 276.348154 
L 221.730909 275.751555 
L 225.338182 275.157952 
L 228.945455 274.570041 
L 232.552727 273.98234 
L 236.16 273.397565 
L 239.767273 272.816889 
L 243.374545 272.237929 
L 246.981818 271.661859 
L 250.589091 271.088645 
L 254.196364 270.518268 
L 257.803636 269.950729 
L 261.410909 269.386011 
L 265.018182 268.82406 
L 268.625455 268.264911 
L 272.232727 267.708495 
L 275.84 267.154847 
L 279.447273 266.603914 
L 283.054545 266.055696 
L 286.661818 265.510193 
L 290.269091 264.967352 
L 293.876364 264.427192 
L 297.483636 263.893005 
L 301.090909 263.358117 
L 304.698182 262.825839 
L 308.305455 262.296171 
L 311.912727 261.769113 
L 315.52 261.24463 
L 319.127273 260.722722 
L 322.734545 260.203371 
L 326.341818 259.68656 
L 329.949091 259.172272 
L 333.556364 258.660524 
L 337.163636 258.151262 
L 340.770909 257.644506 
L 344.378182 257.14022 
L 347.985455 256.638403 
L 351.592727 256.139057 
L 355.2 255.642145 
L 358.807273 255.147668 
L 362.414545 254.659532 
L 366.021818 254.169854 
L 369.629091 253.682594 
L 373.236364 253.197699 
L 376.843636 252.715185 
L 380.450909 252.235055 
L 384.058182 251.757271 
L 387.665455 251.281834 
L 391.272727 250.808728 
L 394.88 250.337933 
L 398.487273 249.869468 
" style="fill:none;stroke:#ff0000;stroke-linecap:square;stroke-width:0.8;"/>
   </g>
   <g id="line2d_32">
    <path clip-path="url(#pb87ffb31d9)" d="M 73.832727 296.124512 
L 77.44 295.34151 
L 81.047273 294.568562 
L 84.654545 293.794318 
L 88.261818 293.024445 
L 91.869091 292.25888 
L 95.476364 291.497607 
L 99.083636 290.740556 
L 102.690909 289.987726 
L 106.298182 289.239048 
L 109.905455 288.494521 
L 113.512727 287.754075 
L 117.12 289.418033 
L 120.727273 288.69407 
L 124.334545 287.974014 
L 127.941818 287.257864 
L 131.549091 286.545585 
L 135.156364 285.837125 
L 138.763636 285.132448 
L 142.370909 284.431555 
L 145.978182 283.734393 
L 149.585455 283.047688 
L 153.192727 282.357813 
L 156.8 281.671582 
L 160.407273 280.988976 
L 164.014545 280.309979 
L 167.621818 279.634537 
L 171.229091 278.962652 
L 174.836364 278.29427 
L 178.443636 277.629408 
L 182.050909 276.968646 
L 185.658182 276.311457 
L 189.265455 275.661239 
L 192.872727 275.010882 
L 196.48 274.363888 
L 200.087273 273.720256 
L 203.694545 273.079953 
L 207.301818 272.442961 
L 210.909091 270.486476 
L 214.516364 269.851112 
L 218.123636 269.221775 
L 221.730909 268.592893 
L 225.338182 267.967233 
L 228.945455 267.34478 
L 232.552727 266.725497 
L 236.16 266.113448 
L 239.767273 265.500436 
L 243.374545 264.890542 
L 246.981818 264.283748 
L 250.589091 263.680055 
L 254.196364 263.079427 
L 257.803636 262.481865 
L 261.410909 261.887333 
L 265.018182 261.295831 
L 268.625455 260.707325 
L 272.232727 260.121814 
L 275.84 259.539666 
L 279.447273 258.960461 
L 283.054545 258.384199 
L 286.661818 257.810879 
L 290.269091 257.24045 
L 293.876364 256.672929 
L 297.483636 256.111888 
L 301.090909 255.550077 
L 304.698182 254.991122 
L 308.305455 254.436125 
L 311.912727 253.882844 
L 315.52 253.332349 
L 319.127273 252.784674 
L 322.734545 252.239749 
L 326.341818 251.697609 
L 329.949091 251.15822 
L 333.556364 250.62158 
L 337.163636 250.087655 
L 340.770909 249.556446 
L 344.378182 249.027952 
L 347.985455 248.502137 
L 351.592727 247.978986 
L 355.2 247.458514 
L 358.807273 246.940705 
L 362.414545 246.425523 
L 366.021818 245.912986 
L 369.629091 245.40306 
L 373.236364 244.900157 
L 376.843636 244.395415 
L 380.450909 243.893248 
L 384.058182 243.393639 
L 387.665455 242.896605 
L 391.272727 242.402127 
L 394.88 241.91019 
L 398.487273 241.420793 
" style="fill:none;stroke:#ff0000;stroke-linecap:square;stroke-width:0.8;"/>
   </g>
   <g id="line2d_33">
    <path clip-path="url(#pb87ffb31d9)" d="M 73.832727 290.451724 
L 77.44 289.627531 
L 81.047273 288.813971 
L 84.654545 287.999045 
L 88.261818 287.188726 
L 91.869091 286.38296 
L 95.476364 285.581732 
L 99.083636 284.784971 
L 102.690909 283.992658 
L 106.298182 283.204743 
L 109.905455 282.421206 
L 113.512727 281.641996 
L 117.12 280.86706 
L 120.727273 280.103458 
L 124.334545 279.336912 
L 127.941818 278.574571 
L 131.549091 277.816381 
L 135.156364 277.062307 
L 138.763636 276.312315 
L 142.370909 275.566404 
L 145.978182 274.824505 
L 149.585455 274.086617 
L 153.192727 273.352687 
L 156.8 272.622699 
L 160.407273 271.904727 
L 164.014545 273.662592 
L 167.621818 272.951714 
L 171.229091 272.24462 
L 174.836364 271.541275 
L 178.443636 270.841678 
L 182.050909 270.145777 
L 185.658182 269.453555 
L 189.265455 268.764993 
L 192.872727 268.080058 
L 196.48 267.407297 
L 200.087273 266.729456 
L 203.694545 266.05517 
L 207.301818 265.384423 
L 210.909091 261.925922 
L 214.516364 261.253686 
L 218.123636 260.585496 
L 221.730909 259.920775 
L 225.338182 259.259505 
L 228.945455 258.601668 
L 232.552727 257.947281 
L 236.16 257.296311 
L 239.767273 256.648738 
L 243.374545 256.004529 
L 246.981818 255.36843 
L 250.589091 254.730877 
L 254.196364 255.546539 
L 257.803636 254.919426 
L 261.410909 254.295659 
L 265.018182 253.675062 
L 268.625455 253.057688 
L 272.232727 252.446953 
L 275.84 251.835973 
L 279.447273 251.228128 
L 283.054545 250.623349 
L 286.661818 250.021723 
L 290.269091 249.423232 
L 293.876364 248.832974 
L 297.483636 248.240649 
L 301.090909 247.651425 
L 304.698182 247.065265 
L 308.305455 246.482154 
L 311.912727 245.902108 
L 315.52 245.325093 
L 319.127273 244.75109 
L 322.734545 244.180101 
L 326.341818 243.612089 
L 329.949091 243.047072 
L 333.556364 242.485016 
L 337.163636 241.926288 
L 340.770909 241.370555 
L 344.378182 240.81773 
L 347.985455 240.267831 
L 351.592727 239.720839 
L 355.2 239.17672 
L 358.807273 238.635491 
L 362.414545 238.101601 
L 366.021818 237.566048 
L 369.629091 237.033332 
L 373.236364 236.504189 
L 376.843636 235.977149 
L 380.450909 235.452911 
L 384.058182 234.931476 
L 387.665455 234.412809 
L 391.272727 233.896926 
L 394.88 233.383794 
L 398.487273 232.873412 
" style="fill:none;stroke:#ff0000;stroke-linecap:square;stroke-width:0.8;"/>
   </g>
   <g id="patch_13">
    <path d="M 57.6 307.584 
L 57.6 229.315765 
" style="fill:none;stroke:#000000;stroke-linecap:square;stroke-linejoin:miter;stroke-width:0.8;"/>
   </g>
   <g id="patch_14">
    <path d="M 414.72 307.584 
L 414.72 229.315765 
" style="fill:none;stroke:#000000;stroke-linecap:square;stroke-linejoin:miter;stroke-width:0.8;"/>
   </g>
   <g id="patch_15">
    <path d="M 57.6 307.584 
L 414.72 307.584 
" style="fill:none;stroke:#000000;stroke-linecap:square;stroke-linejoin:miter;stroke-width:0.8;"/>
   </g>
   <g id="patch_16">
    <path d="M 57.6 229.315765 
L 414.72 229.315765 
" style="fill:none;stroke:#000000;stroke-linecap:square;stroke-linejoin:miter;stroke-width:0.8;"/>
   </g>
   <g id="text_27">
    <!-- F$_{axial}$ -->
    <defs>
     <path d="M 60.015625 54.6875 
L 34.90625 27.875 
L 50.296875 0 
L 39.984375 0 
L 28.421875 21.6875 
L 8.296875 0 
L -2.59375 0 
L 24.3125 28.8125 
L 10.015625 54.6875 
L 20.3125 54.6875 
L 30.8125 34.90625 
L 49.125 54.6875 
z
" id="DejaVuSans-Oblique-120"/>
     <path d="M 18.3125 75.984375 
L 27.296875 75.984375 
L 25.09375 64.59375 
L 16.109375 64.59375 
z
M 14.203125 54.6875 
L 23.1875 54.6875 
L 12.5 0 
L 3.515625 0 
z
" id="DejaVuSans-Oblique-105"/>
    </defs>
    <g transform="translate(224.76 239.901963)scale(0.1 -0.1)">
     <use transform="translate(0 0.09375)" xlink:href="#DejaVuSans-70"/>
     <use transform="translate(58.476562 -16.3125)scale(0.7)" xlink:href="#DejaVuSans-Oblique-97"/>
     <use transform="translate(101.37207 -16.3125)scale(0.7)" xlink:href="#DejaVuSans-Oblique-120"/>
     <use transform="translate(142.797852 -16.3125)scale(0.7)" xlink:href="#DejaVuSans-Oblique-105"/>
     <use transform="translate(162.246094 -16.3125)scale(0.7)" xlink:href="#DejaVuSans-Oblique-97"/>
     <use transform="translate(205.141602 -16.3125)scale(0.7)" xlink:href="#DejaVuSans-Oblique-108"/>
    </g>
   </g>
  </g>
  <g id="text_28">
   <!-- Cutting forces vs ADOC for different values of Feedrate -->
   <defs>
    <path d="M 64.40625 67.28125 
L 64.40625 56.890625 
Q 59.421875 61.53125 53.78125 63.8125 
Q 48.140625 66.109375 41.796875 66.109375 
Q 29.296875 66.109375 22.65625 58.46875 
Q 16.015625 50.828125 16.015625 36.375 
Q 16.015625 21.96875 22.65625 14.328125 
Q 29.296875 6.6875 41.796875 6.6875 
Q 48.140625 6.6875 53.78125 8.984375 
Q 59.421875 11.28125 64.40625 15.921875 
L 64.40625 5.609375 
Q 59.234375 2.09375 53.4375 0.328125 
Q 47.65625 -1.421875 41.21875 -1.421875 
Q 24.65625 -1.421875 15.125 8.703125 
Q 5.609375 18.84375 5.609375 36.375 
Q 5.609375 53.953125 15.125 64.078125 
Q 24.65625 74.21875 41.21875 74.21875 
Q 47.75 74.21875 53.53125 72.484375 
Q 59.328125 70.75 64.40625 67.28125 
z
" id="DejaVuSans-67"/>
    <path d="M 8.5 21.578125 
L 8.5 54.6875 
L 17.484375 54.6875 
L 17.484375 21.921875 
Q 17.484375 14.15625 20.5 10.265625 
Q 23.53125 6.390625 29.59375 6.390625 
Q 36.859375 6.390625 41.078125 11.03125 
Q 45.3125 15.671875 45.3125 23.6875 
L 45.3125 54.6875 
L 54.296875 54.6875 
L 54.296875 0 
L 45.3125 0 
L 45.3125 8.40625 
Q 42.046875 3.421875 37.71875 1 
Q 33.40625 -1.421875 27.6875 -1.421875 
Q 18.265625 -1.421875 13.375 4.4375 
Q 8.5 10.296875 8.5 21.578125 
z
M 31.109375 56 
z
" id="DejaVuSans-117"/>
    <path d="M 18.3125 70.21875 
L 18.3125 54.6875 
L 36.8125 54.6875 
L 36.8125 47.703125 
L 18.3125 47.703125 
L 18.3125 18.015625 
Q 18.3125 11.328125 20.140625 9.421875 
Q 21.96875 7.515625 27.59375 7.515625 
L 36.8125 7.515625 
L 36.8125 0 
L 27.59375 0 
Q 17.1875 0 13.234375 3.875 
Q 9.28125 7.765625 9.28125 18.015625 
L 9.28125 47.703125 
L 2.6875 47.703125 
L 2.6875 54.6875 
L 9.28125 54.6875 
L 9.28125 70.21875 
z
" id="DejaVuSans-116"/>
    <path d="M 9.421875 54.6875 
L 18.40625 54.6875 
L 18.40625 0 
L 9.421875 0 
z
M 9.421875 75.984375 
L 18.40625 75.984375 
L 18.40625 64.59375 
L 9.421875 64.59375 
z
" id="DejaVuSans-105"/>
    <path d="M 54.890625 33.015625 
L 54.890625 0 
L 45.90625 0 
L 45.90625 32.71875 
Q 45.90625 40.484375 42.875 44.328125 
Q 39.84375 48.1875 33.796875 48.1875 
Q 26.515625 48.1875 22.3125 43.546875 
Q 18.109375 38.921875 18.109375 30.90625 
L 18.109375 0 
L 9.078125 0 
L 9.078125 54.6875 
L 18.109375 54.6875 
L 18.109375 46.1875 
Q 21.34375 51.125 25.703125 53.5625 
Q 30.078125 56 35.796875 56 
Q 45.21875 56 50.046875 50.171875 
Q 54.890625 44.34375 54.890625 33.015625 
z
" id="DejaVuSans-110"/>
    <path d="M 45.40625 27.984375 
Q 45.40625 37.75 41.375 43.109375 
Q 37.359375 48.484375 30.078125 48.484375 
Q 22.859375 48.484375 18.828125 43.109375 
Q 14.796875 37.75 14.796875 27.984375 
Q 14.796875 18.265625 18.828125 12.890625 
Q 22.859375 7.515625 30.078125 7.515625 
Q 37.359375 7.515625 41.375 12.890625 
Q 45.40625 18.265625 45.40625 27.984375 
z
M 54.390625 6.78125 
Q 54.390625 -7.171875 48.1875 -13.984375 
Q 42 -20.796875 29.203125 -20.796875 
Q 24.46875 -20.796875 20.265625 -20.09375 
Q 16.0625 -19.390625 12.109375 -17.921875 
L 12.109375 -9.1875 
Q 16.0625 -11.328125 19.921875 -12.34375 
Q 23.78125 -13.375 27.78125 -13.375 
Q 36.625 -13.375 41.015625 -8.765625 
Q 45.40625 -4.15625 45.40625 5.171875 
L 45.40625 9.625 
Q 42.625 4.78125 38.28125 2.390625 
Q 33.9375 0 27.875 0 
Q 17.828125 0 11.671875 7.65625 
Q 5.515625 15.328125 5.515625 27.984375 
Q 5.515625 40.671875 11.671875 48.328125 
Q 17.828125 56 27.875 56 
Q 33.9375 56 38.28125 53.609375 
Q 42.625 51.21875 45.40625 46.390625 
L 45.40625 54.6875 
L 54.390625 54.6875 
z
" id="DejaVuSans-103"/>
    <path id="DejaVuSans-32"/>
    <path d="M 37.109375 75.984375 
L 37.109375 68.5 
L 28.515625 68.5 
Q 23.6875 68.5 21.796875 66.546875 
Q 19.921875 64.59375 19.921875 59.515625 
L 19.921875 54.6875 
L 34.71875 54.6875 
L 34.71875 47.703125 
L 19.921875 47.703125 
L 19.921875 0 
L 10.890625 0 
L 10.890625 47.703125 
L 2.296875 47.703125 
L 2.296875 54.6875 
L 10.890625 54.6875 
L 10.890625 58.5 
Q 10.890625 67.625 15.140625 71.796875 
Q 19.390625 75.984375 28.609375 75.984375 
z
" id="DejaVuSans-102"/>
    <path d="M 30.609375 48.390625 
Q 23.390625 48.390625 19.1875 42.75 
Q 14.984375 37.109375 14.984375 27.296875 
Q 14.984375 17.484375 19.15625 11.84375 
Q 23.34375 6.203125 30.609375 6.203125 
Q 37.796875 6.203125 41.984375 11.859375 
Q 46.1875 17.53125 46.1875 27.296875 
Q 46.1875 37.015625 41.984375 42.703125 
Q 37.796875 48.390625 30.609375 48.390625 
z
M 30.609375 56 
Q 42.328125 56 49.015625 48.375 
Q 55.71875 40.765625 55.71875 27.296875 
Q 55.71875 13.875 49.015625 6.21875 
Q 42.328125 -1.421875 30.609375 -1.421875 
Q 18.84375 -1.421875 12.171875 6.21875 
Q 5.515625 13.875 5.515625 27.296875 
Q 5.515625 40.765625 12.171875 48.375 
Q 18.84375 56 30.609375 56 
z
" id="DejaVuSans-111"/>
    <path d="M 41.109375 46.296875 
Q 39.59375 47.171875 37.8125 47.578125 
Q 36.03125 48 33.890625 48 
Q 26.265625 48 22.1875 43.046875 
Q 18.109375 38.09375 18.109375 28.8125 
L 18.109375 0 
L 9.078125 0 
L 9.078125 54.6875 
L 18.109375 54.6875 
L 18.109375 46.1875 
Q 20.953125 51.171875 25.484375 53.578125 
Q 30.03125 56 36.53125 56 
Q 37.453125 56 38.578125 55.875 
Q 39.703125 55.765625 41.0625 55.515625 
z
" id="DejaVuSans-114"/>
    <path d="M 48.78125 52.59375 
L 48.78125 44.1875 
Q 44.96875 46.296875 41.140625 47.34375 
Q 37.3125 48.390625 33.40625 48.390625 
Q 24.65625 48.390625 19.8125 42.84375 
Q 14.984375 37.3125 14.984375 27.296875 
Q 14.984375 17.28125 19.8125 11.734375 
Q 24.65625 6.203125 33.40625 6.203125 
Q 37.3125 6.203125 41.140625 7.25 
Q 44.96875 8.296875 48.78125 10.40625 
L 48.78125 2.09375 
Q 45.015625 0.34375 40.984375 -0.53125 
Q 36.96875 -1.421875 32.421875 -1.421875 
Q 20.0625 -1.421875 12.78125 6.34375 
Q 5.515625 14.109375 5.515625 27.296875 
Q 5.515625 40.671875 12.859375 48.328125 
Q 20.21875 56 33.015625 56 
Q 37.15625 56 41.109375 55.140625 
Q 45.0625 54.296875 48.78125 52.59375 
z
" id="DejaVuSans-99"/>
    <path d="M 56.203125 29.59375 
L 56.203125 25.203125 
L 14.890625 25.203125 
Q 15.484375 15.921875 20.484375 11.0625 
Q 25.484375 6.203125 34.421875 6.203125 
Q 39.59375 6.203125 44.453125 7.46875 
Q 49.3125 8.734375 54.109375 11.28125 
L 54.109375 2.78125 
Q 49.265625 0.734375 44.1875 -0.34375 
Q 39.109375 -1.421875 33.890625 -1.421875 
Q 20.796875 -1.421875 13.15625 6.1875 
Q 5.515625 13.8125 5.515625 26.8125 
Q 5.515625 40.234375 12.765625 48.109375 
Q 20.015625 56 32.328125 56 
Q 43.359375 56 49.78125 48.890625 
Q 56.203125 41.796875 56.203125 29.59375 
z
M 47.21875 32.234375 
Q 47.125 39.59375 43.09375 43.984375 
Q 39.0625 48.390625 32.421875 48.390625 
Q 24.90625 48.390625 20.390625 44.140625 
Q 15.875 39.890625 15.1875 32.171875 
z
" id="DejaVuSans-101"/>
    <path d="M 44.28125 53.078125 
L 44.28125 44.578125 
Q 40.484375 46.53125 36.375 47.5 
Q 32.28125 48.484375 27.875 48.484375 
Q 21.1875 48.484375 17.84375 46.4375 
Q 14.5 44.390625 14.5 40.28125 
Q 14.5 37.15625 16.890625 35.375 
Q 19.28125 33.59375 26.515625 31.984375 
L 29.59375 31.296875 
Q 39.15625 29.25 43.1875 25.515625 
Q 47.21875 21.78125 47.21875 15.09375 
Q 47.21875 7.46875 41.1875 3.015625 
Q 35.15625 -1.421875 24.609375 -1.421875 
Q 20.21875 -1.421875 15.453125 -0.5625 
Q 10.6875 0.296875 5.421875 2 
L 5.421875 11.28125 
Q 10.40625 8.6875 15.234375 7.390625 
Q 20.0625 6.109375 24.8125 6.109375 
Q 31.15625 6.109375 34.5625 8.28125 
Q 37.984375 10.453125 37.984375 14.40625 
Q 37.984375 18.0625 35.515625 20.015625 
Q 33.0625 21.96875 24.703125 23.78125 
L 21.578125 24.515625 
Q 13.234375 26.265625 9.515625 29.90625 
Q 5.8125 33.546875 5.8125 39.890625 
Q 5.8125 47.609375 11.28125 51.796875 
Q 16.75 56 26.8125 56 
Q 31.78125 56 36.171875 55.265625 
Q 40.578125 54.546875 44.28125 53.078125 
z
" id="DejaVuSans-115"/>
    <path d="M 2.984375 54.6875 
L 12.5 54.6875 
L 29.59375 8.796875 
L 46.6875 54.6875 
L 56.203125 54.6875 
L 35.6875 0 
L 23.484375 0 
z
" id="DejaVuSans-118"/>
    <path d="M 34.1875 63.1875 
L 20.796875 26.90625 
L 47.609375 26.90625 
z
M 28.609375 72.90625 
L 39.796875 72.90625 
L 67.578125 0 
L 57.328125 0 
L 50.6875 18.703125 
L 17.828125 18.703125 
L 11.1875 0 
L 0.78125 0 
z
" id="DejaVuSans-65"/>
    <path d="M 19.671875 64.796875 
L 19.671875 8.109375 
L 31.59375 8.109375 
Q 46.6875 8.109375 53.6875 14.9375 
Q 60.6875 21.78125 60.6875 36.53125 
Q 60.6875 51.171875 53.6875 57.984375 
Q 46.6875 64.796875 31.59375 64.796875 
z
M 9.8125 72.90625 
L 30.078125 72.90625 
Q 51.265625 72.90625 61.171875 64.09375 
Q 71.09375 55.28125 71.09375 36.53125 
Q 71.09375 17.671875 61.125 8.828125 
Q 51.171875 0 30.078125 0 
L 9.8125 0 
z
" id="DejaVuSans-68"/>
    <path d="M 39.40625 66.21875 
Q 28.65625 66.21875 22.328125 58.203125 
Q 16.015625 50.203125 16.015625 36.375 
Q 16.015625 22.609375 22.328125 14.59375 
Q 28.65625 6.59375 39.40625 6.59375 
Q 50.140625 6.59375 56.421875 14.59375 
Q 62.703125 22.609375 62.703125 36.375 
Q 62.703125 50.203125 56.421875 58.203125 
Q 50.140625 66.21875 39.40625 66.21875 
z
M 39.40625 74.21875 
Q 54.734375 74.21875 63.90625 63.9375 
Q 73.09375 53.65625 73.09375 36.375 
Q 73.09375 19.140625 63.90625 8.859375 
Q 54.734375 -1.421875 39.40625 -1.421875 
Q 24.03125 -1.421875 14.8125 8.828125 
Q 5.609375 19.09375 5.609375 36.375 
Q 5.609375 53.65625 14.8125 63.9375 
Q 24.03125 74.21875 39.40625 74.21875 
z
" id="DejaVuSans-79"/>
    <path d="M 45.40625 46.390625 
L 45.40625 75.984375 
L 54.390625 75.984375 
L 54.390625 0 
L 45.40625 0 
L 45.40625 8.203125 
Q 42.578125 3.328125 38.25 0.953125 
Q 33.9375 -1.421875 27.875 -1.421875 
Q 17.96875 -1.421875 11.734375 6.484375 
Q 5.515625 14.40625 5.515625 27.296875 
Q 5.515625 40.1875 11.734375 48.09375 
Q 17.96875 56 27.875 56 
Q 33.9375 56 38.25 53.625 
Q 42.578125 51.265625 45.40625 46.390625 
z
M 14.796875 27.296875 
Q 14.796875 17.390625 18.875 11.75 
Q 22.953125 6.109375 30.078125 6.109375 
Q 37.203125 6.109375 41.296875 11.75 
Q 45.40625 17.390625 45.40625 27.296875 
Q 45.40625 37.203125 41.296875 42.84375 
Q 37.203125 48.484375 30.078125 48.484375 
Q 22.953125 48.484375 18.875 42.84375 
Q 14.796875 37.203125 14.796875 27.296875 
z
" id="DejaVuSans-100"/>
    <path d="M 34.28125 27.484375 
Q 23.390625 27.484375 19.1875 25 
Q 14.984375 22.515625 14.984375 16.5 
Q 14.984375 11.71875 18.140625 8.90625 
Q 21.296875 6.109375 26.703125 6.109375 
Q 34.1875 6.109375 38.703125 11.40625 
Q 43.21875 16.703125 43.21875 25.484375 
L 43.21875 27.484375 
z
M 52.203125 31.203125 
L 52.203125 0 
L 43.21875 0 
L 43.21875 8.296875 
Q 40.140625 3.328125 35.546875 0.953125 
Q 30.953125 -1.421875 24.3125 -1.421875 
Q 15.921875 -1.421875 10.953125 3.296875 
Q 6 8.015625 6 15.921875 
Q 6 25.140625 12.171875 29.828125 
Q 18.359375 34.515625 30.609375 34.515625 
L 43.21875 34.515625 
L 43.21875 35.40625 
Q 43.21875 41.609375 39.140625 45 
Q 35.0625 48.390625 27.6875 48.390625 
Q 23 48.390625 18.546875 47.265625 
Q 14.109375 46.140625 10.015625 43.890625 
L 10.015625 52.203125 
Q 14.9375 54.109375 19.578125 55.046875 
Q 24.21875 56 28.609375 56 
Q 40.484375 56 46.34375 49.84375 
Q 52.203125 43.703125 52.203125 31.203125 
z
" id="DejaVuSans-97"/>
    <path d="M 9.421875 75.984375 
L 18.40625 75.984375 
L 18.40625 0 
L 9.421875 0 
z
" id="DejaVuSans-108"/>
   </defs>
   <g transform="translate(9.08375 19.0695)scale(0.16 -0.16)">
    <use xlink:href="#DejaVuSans-67"/>
    <use x="69.824219" xlink:href="#DejaVuSans-117"/>
    <use x="133.203125" xlink:href="#DejaVuSans-116"/>
    <use x="172.412109" xlink:href="#DejaVuSans-116"/>
    <use x="211.621094" xlink:href="#DejaVuSans-105"/>
    <use x="239.404297" xlink:href="#DejaVuSans-110"/>
    <use x="302.783203" xlink:href="#DejaVuSans-103"/>
    <use x="366.259766" xlink:href="#DejaVuSans-32"/>
    <use x="398.046875" xlink:href="#DejaVuSans-102"/>
    <use x="433.251953" xlink:href="#DejaVuSans-111"/>
    <use x="494.433594" xlink:href="#DejaVuSans-114"/>
    <use x="535.515625" xlink:href="#DejaVuSans-99"/>
    <use x="590.496094" xlink:href="#DejaVuSans-101"/>
    <use x="652.019531" xlink:href="#DejaVuSans-115"/>
    <use x="704.119141" xlink:href="#DejaVuSans-32"/>
    <use x="735.90625" xlink:href="#DejaVuSans-118"/>
    <use x="795.085938" xlink:href="#DejaVuSans-115"/>
    <use x="847.185547" xlink:href="#DejaVuSans-32"/>
    <use x="878.972656" xlink:href="#DejaVuSans-65"/>
    <use x="947.380859" xlink:href="#DejaVuSans-68"/>
    <use x="1024.382812" xlink:href="#DejaVuSans-79"/>
    <use x="1103.09375" xlink:href="#DejaVuSans-67"/>
    <use x="1172.917969" xlink:href="#DejaVuSans-32"/>
    <use x="1204.705078" xlink:href="#DejaVuSans-102"/>
    <use x="1239.910156" xlink:href="#DejaVuSans-111"/>
    <use x="1301.091797" xlink:href="#DejaVuSans-114"/>
    <use x="1342.205078" xlink:href="#DejaVuSans-32"/>
    <use x="1373.992188" xlink:href="#DejaVuSans-100"/>
    <use x="1437.46875" xlink:href="#DejaVuSans-105"/>
    <use x="1465.251953" xlink:href="#DejaVuSans-102"/>
    <use x="1500.457031" xlink:href="#DejaVuSans-102"/>
    <use x="1535.662109" xlink:href="#DejaVuSans-101"/>
    <use x="1597.185547" xlink:href="#DejaVuSans-114"/>
    <use x="1638.267578" xlink:href="#DejaVuSans-101"/>
    <use x="1699.791016" xlink:href="#DejaVuSans-110"/>
    <use x="1763.169922" xlink:href="#DejaVuSans-116"/>
    <use x="1802.378906" xlink:href="#DejaVuSans-32"/>
    <use x="1834.166016" xlink:href="#DejaVuSans-118"/>
    <use x="1893.345703" xlink:href="#DejaVuSans-97"/>
    <use x="1954.625" xlink:href="#DejaVuSans-108"/>
    <use x="1982.408203" xlink:href="#DejaVuSans-117"/>
    <use x="2045.787109" xlink:href="#DejaVuSans-101"/>
    <use x="2107.310547" xlink:href="#DejaVuSans-115"/>
    <use x="2159.410156" xlink:href="#DejaVuSans-32"/>
    <use x="2191.197266" xlink:href="#DejaVuSans-111"/>
    <use x="2252.378906" xlink:href="#DejaVuSans-102"/>
    <use x="2287.583984" xlink:href="#DejaVuSans-32"/>
    <use x="2319.371094" xlink:href="#DejaVuSans-70"/>
    <use x="2376.8125" xlink:href="#DejaVuSans-101"/>
    <use x="2438.335938" xlink:href="#DejaVuSans-101"/>
    <use x="2499.859375" xlink:href="#DejaVuSans-100"/>
    <use x="2563.335938" xlink:href="#DejaVuSans-114"/>
    <use x="2604.449219" xlink:href="#DejaVuSans-97"/>
    <use x="2665.728516" xlink:href="#DejaVuSans-116"/>
    <use x="2704.9375" xlink:href="#DejaVuSans-101"/>
   </g>
  </g>
  <g id="legend_1">
   <g id="patch_17">
    <path d="M 56.546875 340.6 
L 404.253125 340.6 
Q 406.253125 340.6 406.253125 338.6 
L 406.253125 324.921875 
Q 406.253125 322.921875 404.253125 322.921875 
L 56.546875 322.921875 
Q 54.546875 322.921875 54.546875 324.921875 
L 54.546875 338.6 
Q 54.546875 340.6 56.546875 340.6 
z
" style="fill:#ffffff;opacity:0.8;stroke:#cccccc;stroke-linejoin:miter;"/>
   </g>
   <g id="line2d_34">
    <path d="M 58.546875 331.020312 
L 78.546875 331.020312 
" style="fill:none;stroke:#ff0000;stroke-linecap:square;stroke-width:0.8;"/>
   </g>
   <g id="line2d_35"/>
   <g id="text_29">
    <!-- Feedrate=0.2 -->
    <defs>
     <path d="M 10.59375 45.40625 
L 73.1875 45.40625 
L 73.1875 37.203125 
L 10.59375 37.203125 
z
M 10.59375 25.484375 
L 73.1875 25.484375 
L 73.1875 17.1875 
L 10.59375 17.1875 
z
" id="DejaVuSans-61"/>
    </defs>
    <g transform="translate(86.546875 334.520312)scale(0.1 -0.1)">
     <use xlink:href="#DejaVuSans-70"/>
     <use x="57.441406" xlink:href="#DejaVuSans-101"/>
     <use x="118.964844" xlink:href="#DejaVuSans-101"/>
     <use x="180.488281" xlink:href="#DejaVuSans-100"/>
     <use x="243.964844" xlink:href="#DejaVuSans-114"/>
     <use x="285.078125" xlink:href="#DejaVuSans-97"/>
     <use x="346.357422" xlink:href="#DejaVuSans-116"/>
     <use x="385.566406" xlink:href="#DejaVuSans-101"/>
     <use x="447.089844" xlink:href="#DejaVuSans-61"/>
     <use x="530.878906" xlink:href="#DejaVuSans-48"/>
     <use x="594.501953" xlink:href="#DejaVuSans-46"/>
     <use x="626.289062" xlink:href="#DejaVuSans-50"/>
    </g>
   </g>
   <g id="line2d_36">
    <path d="M 175.540625 331.020312 
L 195.540625 331.020312 
" style="fill:none;stroke:#ff0000;stroke-linecap:square;stroke-width:0.8;"/>
   </g>
   <g id="line2d_37"/>
   <g id="text_30">
    <!-- Feedrate=0.24 -->
    <g transform="translate(203.540625 334.520312)scale(0.1 -0.1)">
     <use xlink:href="#DejaVuSans-70"/>
     <use x="57.441406" xlink:href="#DejaVuSans-101"/>
     <use x="118.964844" xlink:href="#DejaVuSans-101"/>
     <use x="180.488281" xlink:href="#DejaVuSans-100"/>
     <use x="243.964844" xlink:href="#DejaVuSans-114"/>
     <use x="285.078125" xlink:href="#DejaVuSans-97"/>
     <use x="346.357422" xlink:href="#DejaVuSans-116"/>
     <use x="385.566406" xlink:href="#DejaVuSans-101"/>
     <use x="447.089844" xlink:href="#DejaVuSans-61"/>
     <use x="530.878906" xlink:href="#DejaVuSans-48"/>
     <use x="594.501953" xlink:href="#DejaVuSans-46"/>
     <use x="626.289062" xlink:href="#DejaVuSans-50"/>
     <use x="689.912109" xlink:href="#DejaVuSans-52"/>
    </g>
   </g>
   <g id="line2d_38">
    <path d="M 298.896875 331.020312 
L 318.896875 331.020312 
" style="fill:none;stroke:#ff0000;stroke-linecap:square;stroke-width:0.8;"/>
   </g>
   <g id="line2d_39"/>
   <g id="text_31">
    <!-- Feedrate=0.28 -->
    <g transform="translate(326.896875 334.520312)scale(0.1 -0.1)">
     <use xlink:href="#DejaVuSans-70"/>
     <use x="57.441406" xlink:href="#DejaVuSans-101"/>
     <use x="118.964844" xlink:href="#DejaVuSans-101"/>
     <use x="180.488281" xlink:href="#DejaVuSans-100"/>
     <use x="243.964844" xlink:href="#DejaVuSans-114"/>
     <use x="285.078125" xlink:href="#DejaVuSans-97"/>
     <use x="346.357422" xlink:href="#DejaVuSans-116"/>
     <use x="385.566406" xlink:href="#DejaVuSans-101"/>
     <use x="447.089844" xlink:href="#DejaVuSans-61"/>
     <use x="530.878906" xlink:href="#DejaVuSans-48"/>
     <use x="594.501953" xlink:href="#DejaVuSans-46"/>
     <use x="626.289062" xlink:href="#DejaVuSans-50"/>
     <use x="689.912109" xlink:href="#DejaVuSans-56"/>
    </g>
   </g>
  </g>
 </g>
 <defs>
  <clipPath id="pb3a6df1184">
   <rect height="78.268235" width="357.12" x="57.6" y="41.472"/>
  </clipPath>
  <clipPath id="p3aeede644c">
   <rect height="78.268235" width="357.12" x="57.6" y="135.393882"/>
  </clipPath>
  <clipPath id="pb87ffb31d9">
   <rect height="78.268235" width="357.12" x="57.6" y="229.315765"/>
  </clipPath>
 </defs>
</svg>
