<?xml version="1.0" encoding="utf-8" standalone="no"?>
<!DOCTYPE svg PUBLIC "-//W3C//DTD SVG 1.1//EN"
  "http://www.w3.org/Graphics/SVG/1.1/DTD/svg11.dtd">
<!-- Created with matplotlib (https://matplotlib.org/) -->
<svg height="345.6pt" version="1.1" viewBox="0 0 460.8 345.6" width="460.8pt" xmlns="http://www.w3.org/2000/svg" xmlns:xlink="http://www.w3.org/1999/xlink">
 <defs>
  <style type="text/css">
*{stroke-linecap:butt;stroke-linejoin:round;white-space:pre;}
  </style>
 </defs>
 <g id="figure_1">
  <g id="patch_1">
   <path d="M 0 345.6 
L 460.8 345.6 
L 460.8 0 
L 0 0 
z
" style="fill:#ffffff;"/>
  </g>
  <g id="axes_1">
   <g id="patch_2">
    <path d="M 57.6 119.740235 
L 414.72 119.740235 
L 414.72 41.472 
L 57.6 41.472 
z
" style="fill:#ffffff;"/>
   </g>
   <g id="matplotlib.axis_1">
    <g id="xtick_1">
     <g id="line2d_1">
      <defs>
       <path d="M 0 0 
L 0 3.5 
" id="m618c62f65b" style="stroke:#000000;stroke-width:0.8;"/>
      </defs>
      <g>
       <use style="stroke:#000000;stroke-width:0.8;" x="71.798822" xlink:href="#m618c62f65b" y="119.740235"/>
      </g>
     </g>
     <g id="text_1">
      <!-- 1.0 -->
      <defs>
       <path d="M 12.40625 8.296875 
L 28.515625 8.296875 
L 28.515625 63.921875 
L 10.984375 60.40625 
L 10.984375 69.390625 
L 28.421875 72.90625 
L 38.28125 72.90625 
L 38.28125 8.296875 
L 54.390625 8.296875 
L 54.390625 0 
L 12.40625 0 
z
" id="DejaVuSans-49"/>
       <path d="M 10.6875 12.40625 
L 21 12.40625 
L 21 0 
L 10.6875 0 
z
" id="DejaVuSans-46"/>
       <path d="M 31.78125 66.40625 
Q 24.171875 66.40625 20.328125 58.90625 
Q 16.5 51.421875 16.5 36.375 
Q 16.5 21.390625 20.328125 13.890625 
Q 24.171875 6.390625 31.78125 6.390625 
Q 39.453125 6.390625 43.28125 13.890625 
Q 47.125 21.390625 47.125 36.375 
Q 47.125 51.421875 43.28125 58.90625 
Q 39.453125 66.40625 31.78125 66.40625 
z
M 31.78125 74.21875 
Q 44.046875 74.21875 50.515625 64.515625 
Q 56.984375 54.828125 56.984375 36.375 
Q 56.984375 17.96875 50.515625 8.265625 
Q 44.046875 -1.421875 31.78125 -1.421875 
Q 19.53125 -1.421875 13.0625 8.265625 
Q 6.59375 17.96875 6.59375 36.375 
Q 6.59375 54.828125 13.0625 64.515625 
Q 19.53125 74.21875 31.78125 74.21875 
z
" id="DejaVuSans-48"/>
      </defs>
      <g transform="translate(63.84726 134.338673)scale(0.1 -0.1)">
       <use xlink:href="#DejaVuSans-49"/>
       <use x="63.623047" xlink:href="#DejaVuSans-46"/>
       <use x="95.410156" xlink:href="#DejaVuSans-48"/>
      </g>
     </g>
    </g>
    <g id="xtick_2">
     <g id="line2d_2">
      <g>
       <use style="stroke:#000000;stroke-width:0.8;" x="148.54931" xlink:href="#m618c62f65b" y="119.740235"/>
      </g>
     </g>
     <g id="text_2">
      <!-- 1.2 -->
      <defs>
       <path d="M 19.1875 8.296875 
L 53.609375 8.296875 
L 53.609375 0 
L 7.328125 0 
L 7.328125 8.296875 
Q 12.9375 14.109375 22.625 23.890625 
Q 32.328125 33.6875 34.8125 36.53125 
Q 39.546875 41.84375 41.421875 45.53125 
Q 43.3125 49.21875 43.3125 52.78125 
Q 43.3125 58.59375 39.234375 62.25 
Q 35.15625 65.921875 28.609375 65.921875 
Q 23.96875 65.921875 18.8125 64.3125 
Q 13.671875 62.703125 7.8125 59.421875 
L 7.8125 69.390625 
Q 13.765625 71.78125 18.9375 73 
Q 24.125 74.21875 28.421875 74.21875 
Q 39.75 74.21875 46.484375 68.546875 
Q 53.21875 62.890625 53.21875 53.421875 
Q 53.21875 48.921875 51.53125 44.890625 
Q 49.859375 40.875 45.40625 35.40625 
Q 44.1875 33.984375 37.640625 27.21875 
Q 31.109375 20.453125 19.1875 8.296875 
z
" id="DejaVuSans-50"/>
      </defs>
      <g transform="translate(140.597747 134.338673)scale(0.1 -0.1)">
       <use xlink:href="#DejaVuSans-49"/>
       <use x="63.623047" xlink:href="#DejaVuSans-46"/>
       <use x="95.410156" xlink:href="#DejaVuSans-50"/>
      </g>
     </g>
    </g>
    <g id="xtick_3">
     <g id="line2d_3">
      <g>
       <use style="stroke:#000000;stroke-width:0.8;" x="225.299797" xlink:href="#m618c62f65b" y="119.740235"/>
      </g>
     </g>
     <g id="text_3">
      <!-- 1.4 -->
      <defs>
       <path d="M 37.796875 64.3125 
L 12.890625 25.390625 
L 37.796875 25.390625 
z
M 35.203125 72.90625 
L 47.609375 72.90625 
L 47.609375 25.390625 
L 58.015625 25.390625 
L 58.015625 17.1875 
L 47.609375 17.1875 
L 47.609375 0 
L 37.796875 0 
L 37.796875 17.1875 
L 4.890625 17.1875 
L 4.890625 26.703125 
z
" id="DejaVuSans-52"/>
      </defs>
      <g transform="translate(217.348235 134.338673)scale(0.1 -0.1)">
       <use xlink:href="#DejaVuSans-49"/>
       <use x="63.623047" xlink:href="#DejaVuSans-46"/>
       <use x="95.410156" xlink:href="#DejaVuSans-52"/>
      </g>
     </g>
    </g>
    <g id="xtick_4">
     <g id="line2d_4">
      <g>
       <use style="stroke:#000000;stroke-width:0.8;" x="302.050285" xlink:href="#m618c62f65b" y="119.740235"/>
      </g>
     </g>
     <g id="text_4">
      <!-- 1.6 -->
      <defs>
       <path d="M 33.015625 40.375 
Q 26.375 40.375 22.484375 35.828125 
Q 18.609375 31.296875 18.609375 23.390625 
Q 18.609375 15.53125 22.484375 10.953125 
Q 26.375 6.390625 33.015625 6.390625 
Q 39.65625 6.390625 43.53125 10.953125 
Q 47.40625 15.53125 47.40625 23.390625 
Q 47.40625 31.296875 43.53125 35.828125 
Q 39.65625 40.375 33.015625 40.375 
z
M 52.59375 71.296875 
L 52.59375 62.3125 
Q 48.875 64.0625 45.09375 64.984375 
Q 41.3125 65.921875 37.59375 65.921875 
Q 27.828125 65.921875 22.671875 59.328125 
Q 17.53125 52.734375 16.796875 39.40625 
Q 19.671875 43.65625 24.015625 45.921875 
Q 28.375 48.1875 33.59375 48.1875 
Q 44.578125 48.1875 50.953125 41.515625 
Q 57.328125 34.859375 57.328125 23.390625 
Q 57.328125 12.15625 50.6875 5.359375 
Q 44.046875 -1.421875 33.015625 -1.421875 
Q 20.359375 -1.421875 13.671875 8.265625 
Q 6.984375 17.96875 6.984375 36.375 
Q 6.984375 53.65625 15.1875 63.9375 
Q 23.390625 74.21875 37.203125 74.21875 
Q 40.921875 74.21875 44.703125 73.484375 
Q 48.484375 72.75 52.59375 71.296875 
z
" id="DejaVuSans-54"/>
      </defs>
      <g transform="translate(294.098722 134.338673)scale(0.1 -0.1)">
       <use xlink:href="#DejaVuSans-49"/>
       <use x="63.623047" xlink:href="#DejaVuSans-46"/>
       <use x="95.410156" xlink:href="#DejaVuSans-54"/>
      </g>
     </g>
    </g>
    <g id="xtick_5">
     <g id="line2d_5">
      <g>
       <use style="stroke:#000000;stroke-width:0.8;" x="378.800772" xlink:href="#m618c62f65b" y="119.740235"/>
      </g>
     </g>
     <g id="text_5">
      <!-- 1.8 -->
      <defs>
       <path d="M 31.78125 34.625 
Q 24.75 34.625 20.71875 30.859375 
Q 16.703125 27.09375 16.703125 20.515625 
Q 16.703125 13.921875 20.71875 10.15625 
Q 24.75 6.390625 31.78125 6.390625 
Q 38.8125 6.390625 42.859375 10.171875 
Q 46.921875 13.96875 46.921875 20.515625 
Q 46.921875 27.09375 42.890625 30.859375 
Q 38.875 34.625 31.78125 34.625 
z
M 21.921875 38.8125 
Q 15.578125 40.375 12.03125 44.71875 
Q 8.5 49.078125 8.5 55.328125 
Q 8.5 64.0625 14.71875 69.140625 
Q 20.953125 74.21875 31.78125 74.21875 
Q 42.671875 74.21875 48.875 69.140625 
Q 55.078125 64.0625 55.078125 55.328125 
Q 55.078125 49.078125 51.53125 44.71875 
Q 48 40.375 41.703125 38.8125 
Q 48.828125 37.15625 52.796875 32.3125 
Q 56.78125 27.484375 56.78125 20.515625 
Q 56.78125 9.90625 50.3125 4.234375 
Q 43.84375 -1.421875 31.78125 -1.421875 
Q 19.734375 -1.421875 13.25 4.234375 
Q 6.78125 9.90625 6.78125 20.515625 
Q 6.78125 27.484375 10.78125 32.3125 
Q 14.796875 37.15625 21.921875 38.8125 
z
M 18.3125 54.390625 
Q 18.3125 48.734375 21.84375 45.5625 
Q 25.390625 42.390625 31.78125 42.390625 
Q 38.140625 42.390625 41.71875 45.5625 
Q 45.3125 48.734375 45.3125 54.390625 
Q 45.3125 60.0625 41.71875 63.234375 
Q 38.140625 66.40625 31.78125 66.40625 
Q 25.390625 66.40625 21.84375 63.234375 
Q 18.3125 60.0625 18.3125 54.390625 
z
" id="DejaVuSans-56"/>
      </defs>
      <g transform="translate(370.84921 134.338673)scale(0.1 -0.1)">
       <use xlink:href="#DejaVuSans-49"/>
       <use x="63.623047" xlink:href="#DejaVuSans-46"/>
       <use x="95.410156" xlink:href="#DejaVuSans-56"/>
      </g>
     </g>
    </g>
   </g>
   <g id="matplotlib.axis_2">
    <g id="ytick_1">
     <g id="line2d_6">
      <defs>
       <path d="M 0 0 
L -3.5 0 
" id="m3cd75a89b7" style="stroke:#000000;stroke-width:0.8;"/>
      </defs>
      <g>
       <use style="stroke:#000000;stroke-width:0.8;" x="57.6" xlink:href="#m3cd75a89b7" y="98.630645"/>
      </g>
     </g>
     <g id="text_6">
      <!-- 150 -->
      <defs>
       <path d="M 10.796875 72.90625 
L 49.515625 72.90625 
L 49.515625 64.59375 
L 19.828125 64.59375 
L 19.828125 46.734375 
Q 21.96875 47.46875 24.109375 47.828125 
Q 26.265625 48.1875 28.421875 48.1875 
Q 40.625 48.1875 47.75 41.5 
Q 54.890625 34.8125 54.890625 23.390625 
Q 54.890625 11.625 47.5625 5.09375 
Q 40.234375 -1.421875 26.90625 -1.421875 
Q 22.3125 -1.421875 17.546875 -0.640625 
Q 12.796875 0.140625 7.71875 1.703125 
L 7.71875 11.625 
Q 12.109375 9.234375 16.796875 8.0625 
Q 21.484375 6.890625 26.703125 6.890625 
Q 35.15625 6.890625 40.078125 11.328125 
Q 45.015625 15.765625 45.015625 23.390625 
Q 45.015625 31 40.078125 35.4375 
Q 35.15625 39.890625 26.703125 39.890625 
Q 22.75 39.890625 18.8125 39.015625 
Q 14.890625 38.140625 10.796875 36.28125 
z
" id="DejaVuSans-53"/>
      </defs>
      <g transform="translate(31.5125 102.429864)scale(0.1 -0.1)">
       <use xlink:href="#DejaVuSans-49"/>
       <use x="63.623047" xlink:href="#DejaVuSans-53"/>
       <use x="127.246094" xlink:href="#DejaVuSans-48"/>
      </g>
     </g>
    </g>
    <g id="ytick_2">
     <g id="line2d_7">
      <g>
       <use style="stroke:#000000;stroke-width:0.8;" x="57.6" xlink:href="#m3cd75a89b7" y="76.41992"/>
      </g>
     </g>
     <g id="text_7">
      <!-- 200 -->
      <g transform="translate(31.5125 80.219139)scale(0.1 -0.1)">
       <use xlink:href="#DejaVuSans-50"/>
       <use x="63.623047" xlink:href="#DejaVuSans-48"/>
       <use x="127.246094" xlink:href="#DejaVuSans-48"/>
      </g>
     </g>
    </g>
    <g id="ytick_3">
     <g id="line2d_8">
      <g>
       <use style="stroke:#000000;stroke-width:0.8;" x="57.6" xlink:href="#m3cd75a89b7" y="54.209195"/>
      </g>
     </g>
     <g id="text_8">
      <!-- 250 -->
      <g transform="translate(31.5125 58.008413)scale(0.1 -0.1)">
       <use xlink:href="#DejaVuSans-50"/>
       <use x="63.623047" xlink:href="#DejaVuSans-53"/>
       <use x="127.246094" xlink:href="#DejaVuSans-48"/>
      </g>
     </g>
    </g>
   </g>
   <g id="line2d_9">
    <path clip-path="url(#pe3c72b24d7)" d="M 73.832727 116.182588 
L 77.555103 115.607752 
L 106.336554 111.314614 
L 308.842695 78.917013 
L 398.487273 63.321245 
" style="fill:none;stroke:#0000ff;stroke-linecap:square;"/>
    <defs>
     <path d="M 0 0.75 
C 0.198902 0.75 0.389685 0.670975 0.53033 0.53033 
C 0.670975 0.389685 0.75 0.198902 0.75 0 
C 0.75 -0.198902 0.670975 -0.389685 0.53033 -0.53033 
C 0.389685 -0.670975 0.198902 -0.75 0 -0.75 
C -0.198902 -0.75 -0.389685 -0.670975 -0.53033 -0.53033 
C -0.670975 -0.389685 -0.75 -0.198902 -0.75 0 
C -0.75 0.198902 -0.670975 0.389685 -0.53033 0.53033 
C -0.389685 0.670975 -0.198902 0.75 0 0.75 
z
" id="m759d8b9e0f" style="stroke:#0000ff;"/>
    </defs>
    <g clip-path="url(#pe3c72b24d7)">
     <use style="fill:#0000ff;stroke:#0000ff;" x="73.832727" xlink:href="#m759d8b9e0f" y="116.182588"/>
     <use style="fill:#0000ff;stroke:#0000ff;" x="77.555103" xlink:href="#m759d8b9e0f" y="115.607752"/>
     <use style="fill:#0000ff;stroke:#0000ff;" x="106.336554" xlink:href="#m759d8b9e0f" y="111.314614"/>
     <use style="fill:#0000ff;stroke:#0000ff;" x="308.842695" xlink:href="#m759d8b9e0f" y="78.917013"/>
     <use style="fill:#0000ff;stroke:#0000ff;" x="398.487273" xlink:href="#m759d8b9e0f" y="63.321245"/>
    </g>
   </g>
   <g id="line2d_10">
    <path clip-path="url(#pe3c72b24d7)" d="M 73.832727 116.027019 
L 77.555103 115.548971 
L 106.336554 111.456888 
L 308.842695 78.919209 
L 398.487273 63.321746 
" style="fill:none;"/>
    <defs>
     <path d="M 0 0.75 
C 0.198902 0.75 0.389685 0.670975 0.53033 0.53033 
C 0.670975 0.389685 0.75 0.198902 0.75 0 
C 0.75 -0.198902 0.670975 -0.389685 0.53033 -0.53033 
C 0.389685 -0.670975 0.198902 -0.75 0 -0.75 
C -0.198902 -0.75 -0.389685 -0.670975 -0.53033 -0.53033 
C -0.670975 -0.389685 -0.75 -0.198902 -0.75 0 
C -0.75 0.198902 -0.670975 0.389685 -0.53033 0.53033 
C -0.389685 0.670975 -0.198902 0.75 0 0.75 
z
" id="mdf3eab9e89" style="stroke:#ff0000;"/>
    </defs>
    <g clip-path="url(#pe3c72b24d7)">
     <use style="fill:#ff0000;stroke:#ff0000;" x="73.832727" xlink:href="#mdf3eab9e89" y="116.027019"/>
     <use style="fill:#ff0000;stroke:#ff0000;" x="77.555103" xlink:href="#mdf3eab9e89" y="115.548971"/>
     <use style="fill:#ff0000;stroke:#ff0000;" x="106.336554" xlink:href="#mdf3eab9e89" y="111.456888"/>
     <use style="fill:#ff0000;stroke:#ff0000;" x="308.842695" xlink:href="#mdf3eab9e89" y="78.919209"/>
     <use style="fill:#ff0000;stroke:#ff0000;" x="398.487273" xlink:href="#mdf3eab9e89" y="63.321746"/>
    </g>
   </g>
   <g id="line2d_11">
    <path clip-path="url(#pe3c72b24d7)" d="M 130.512944 102.629918 
L 162.748145 97.030826 
L 253.313744 80.848949 
L 286.316441 74.643977 
L 345.341412 63.28612 
" style="fill:none;stroke:#0000ff;stroke-linecap:square;"/>
    <defs>
     <path d="M -1.5 0 
L 1.5 0 
M 0 1.5 
L 0 -1.5 
" id="m5be8360b4f" style="stroke:#0000ff;"/>
    </defs>
    <g clip-path="url(#pe3c72b24d7)">
     <use style="fill:#0000ff;stroke:#0000ff;" x="130.512944" xlink:href="#m5be8360b4f" y="102.629918"/>
     <use style="fill:#0000ff;stroke:#0000ff;" x="162.748145" xlink:href="#m5be8360b4f" y="97.030826"/>
     <use style="fill:#0000ff;stroke:#0000ff;" x="253.313744" xlink:href="#m5be8360b4f" y="80.848949"/>
     <use style="fill:#0000ff;stroke:#0000ff;" x="286.316441" xlink:href="#m5be8360b4f" y="74.643977"/>
     <use style="fill:#0000ff;stroke:#0000ff;" x="345.341412" xlink:href="#m5be8360b4f" y="63.28612"/>
    </g>
   </g>
   <g id="line2d_12">
    <path clip-path="url(#pe3c72b24d7)" d="M 130.512944 102.505843 
L 162.748145 97.169603 
L 253.313744 80.797198 
L 286.316441 74.699219 
L 345.341412 63.325305 
" style="fill:none;"/>
    <defs>
     <path d="M -1.5 0 
L 1.5 0 
M 0 1.5 
L 0 -1.5 
" id="m8a64149716" style="stroke:#ff0000;"/>
    </defs>
    <g clip-path="url(#pe3c72b24d7)">
     <use style="fill:#ff0000;stroke:#ff0000;" x="130.512944" xlink:href="#m8a64149716" y="102.505843"/>
     <use style="fill:#ff0000;stroke:#ff0000;" x="162.748145" xlink:href="#m8a64149716" y="97.169603"/>
     <use style="fill:#ff0000;stroke:#ff0000;" x="253.313744" xlink:href="#m8a64149716" y="80.797198"/>
     <use style="fill:#ff0000;stroke:#ff0000;" x="286.316441" xlink:href="#m8a64149716" y="74.699219"/>
     <use style="fill:#ff0000;stroke:#ff0000;" x="345.341412" xlink:href="#m8a64149716" y="63.325305"/>
    </g>
   </g>
   <g id="line2d_13">
    <path clip-path="url(#pe3c72b24d7)" d="M 82.543889 105.366728 
L 196.019467 84.959879 
L 242.568677 75.042947 
L 370.358218 48.533137 
L 386.092071 45.029647 
" style="fill:none;stroke:#0000ff;stroke-linecap:square;"/>
    <defs>
     <path d="M -1.5 1.5 
L 1.5 -1.5 
M -1.5 -1.5 
L 1.5 1.5 
" id="m774737005d" style="stroke:#0000ff;"/>
    </defs>
    <g clip-path="url(#pe3c72b24d7)">
     <use style="fill:#0000ff;stroke:#0000ff;" x="82.543889" xlink:href="#m774737005d" y="105.366728"/>
     <use style="fill:#0000ff;stroke:#0000ff;" x="196.019467" xlink:href="#m774737005d" y="84.959879"/>
     <use style="fill:#0000ff;stroke:#0000ff;" x="242.568677" xlink:href="#m774737005d" y="75.042947"/>
     <use style="fill:#0000ff;stroke:#0000ff;" x="370.358218" xlink:href="#m774737005d" y="48.533137"/>
     <use style="fill:#0000ff;stroke:#0000ff;" x="386.092071" xlink:href="#m774737005d" y="45.029647"/>
    </g>
   </g>
   <g id="line2d_14">
    <path clip-path="url(#pe3c72b24d7)" d="M 82.543889 105.459745 
L 196.019467 84.928286 
L 242.568677 75.114884 
L 370.358218 48.629997 
L 386.092071 45.130886 
" style="fill:none;"/>
    <defs>
     <path d="M -1.5 1.5 
L 1.5 -1.5 
M -1.5 -1.5 
L 1.5 1.5 
" id="m1924fa1d62" style="stroke:#ff0000;"/>
    </defs>
    <g clip-path="url(#pe3c72b24d7)">
     <use style="fill:#ff0000;stroke:#ff0000;" x="82.543889" xlink:href="#m1924fa1d62" y="105.459745"/>
     <use style="fill:#ff0000;stroke:#ff0000;" x="196.019467" xlink:href="#m1924fa1d62" y="84.928286"/>
     <use style="fill:#ff0000;stroke:#ff0000;" x="242.568677" xlink:href="#m1924fa1d62" y="75.114884"/>
     <use style="fill:#ff0000;stroke:#ff0000;" x="370.358218" xlink:href="#m1924fa1d62" y="48.629997"/>
     <use style="fill:#ff0000;stroke:#ff0000;" x="386.092071" xlink:href="#m1924fa1d62" y="45.130886"/>
    </g>
   </g>
   <g id="patch_3">
    <path d="M 57.6 119.740235 
L 57.6 41.472 
" style="fill:none;stroke:#000000;stroke-linecap:square;stroke-linejoin:miter;stroke-width:0.8;"/>
   </g>
   <g id="patch_4">
    <path d="M 414.72 119.740235 
L 414.72 41.472 
" style="fill:none;stroke:#000000;stroke-linecap:square;stroke-linejoin:miter;stroke-width:0.8;"/>
   </g>
   <g id="patch_5">
    <path d="M 57.6 119.740235 
L 414.72 119.740235 
" style="fill:none;stroke:#000000;stroke-linecap:square;stroke-linejoin:miter;stroke-width:0.8;"/>
   </g>
   <g id="patch_6">
    <path d="M 57.6 41.472 
L 414.72 41.472 
" style="fill:none;stroke:#000000;stroke-linecap:square;stroke-linejoin:miter;stroke-width:0.8;"/>
   </g>
   <g id="text_9">
    <!-- F$_{feed}$ -->
    <defs>
     <path d="M 9.8125 72.90625 
L 51.703125 72.90625 
L 51.703125 64.59375 
L 19.671875 64.59375 
L 19.671875 43.109375 
L 48.578125 43.109375 
L 48.578125 34.8125 
L 19.671875 34.8125 
L 19.671875 0 
L 9.8125 0 
z
" id="DejaVuSans-70"/>
     <path d="M 47.796875 75.984375 
L 46.390625 68.5 
L 37.796875 68.5 
Q 32.90625 68.5 30.6875 66.578125 
Q 28.46875 64.65625 27.390625 59.515625 
L 26.421875 54.6875 
L 41.21875 54.6875 
L 39.890625 47.703125 
L 25.09375 47.703125 
L 15.828125 0 
L 6.78125 0 
L 16.109375 47.703125 
L 7.515625 47.703125 
L 8.796875 54.6875 
L 17.390625 54.6875 
L 18.109375 58.5 
Q 19.96875 68.171875 24.625 72.078125 
Q 29.296875 75.984375 39.3125 75.984375 
z
" id="DejaVuSans-Oblique-102"/>
     <path d="M 48.09375 32.234375 
Q 48.25 33.015625 48.3125 33.84375 
Q 48.390625 34.671875 48.390625 35.5 
Q 48.390625 41.453125 44.890625 44.921875 
Q 41.40625 48.390625 35.40625 48.390625 
Q 28.71875 48.390625 23.578125 44.15625 
Q 18.453125 39.9375 15.828125 32.171875 
z
M 55.90625 25.203125 
L 14.109375 25.203125 
Q 13.8125 23.34375 13.71875 22.265625 
Q 13.625 21.1875 13.625 20.40625 
Q 13.625 13.625 17.796875 9.90625 
Q 21.96875 6.203125 29.59375 6.203125 
Q 35.453125 6.203125 40.671875 7.515625 
Q 45.90625 8.84375 50.390625 11.375 
L 48.6875 2.484375 
Q 43.84375 0.53125 38.6875 -0.4375 
Q 33.546875 -1.421875 28.21875 -1.421875 
Q 16.84375 -1.421875 10.71875 4.015625 
Q 4.59375 9.46875 4.59375 19.484375 
Q 4.59375 28.03125 7.640625 35.375 
Q 10.6875 42.71875 16.609375 48.484375 
Q 20.40625 52.09375 25.65625 54.046875 
Q 30.90625 56 36.8125 56 
Q 46.09375 56 51.578125 50.4375 
Q 57.078125 44.875 57.078125 35.5 
Q 57.078125 33.25 56.78125 30.6875 
Q 56.5 28.125 55.90625 25.203125 
z
" id="DejaVuSans-Oblique-101"/>
     <path d="M 41.796875 8.203125 
Q 38.1875 3.46875 33.25 1.015625 
Q 28.328125 -1.421875 22.3125 -1.421875 
Q 14.109375 -1.421875 9.34375 4.171875 
Q 4.59375 9.765625 4.59375 19.484375 
Q 4.59375 27.59375 7.46875 34.9375 
Q 10.359375 42.28125 15.828125 48.09375 
Q 19.4375 51.953125 23.96875 53.96875 
Q 28.515625 56 33.5 56 
Q 38.765625 56 42.796875 53.453125 
Q 46.828125 50.921875 49.03125 46.1875 
L 54.890625 75.984375 
L 63.921875 75.984375 
L 49.125 0 
L 40.09375 0 
z
M 13.921875 21.09375 
Q 13.921875 14.015625 17.109375 10.0625 
Q 20.3125 6.109375 25.984375 6.109375 
Q 30.171875 6.109375 33.765625 8.125 
Q 37.359375 10.15625 40.09375 14.109375 
Q 42.96875 18.21875 44.625 23.578125 
Q 46.296875 28.953125 46.296875 34.1875 
Q 46.296875 40.96875 43.09375 44.765625 
Q 39.890625 48.578125 34.28125 48.578125 
Q 30.03125 48.578125 26.359375 46.578125 
Q 22.703125 44.578125 20.125 40.828125 
Q 17.28125 36.765625 15.59375 31.390625 
Q 13.921875 26.03125 13.921875 21.09375 
z
" id="DejaVuSans-Oblique-100"/>
    </defs>
    <g transform="translate(225.31 52.058199)scale(0.1 -0.1)">
     <use transform="translate(0 0.09375)" xlink:href="#DejaVuSans-70"/>
     <use transform="translate(58.476562 -16.3125)scale(0.7)" xlink:href="#DejaVuSans-Oblique-102"/>
     <use transform="translate(83.120117 -16.3125)scale(0.7)" xlink:href="#DejaVuSans-Oblique-101"/>
     <use transform="translate(126.186523 -16.3125)scale(0.7)" xlink:href="#DejaVuSans-Oblique-101"/>
     <use transform="translate(169.25293 -16.3125)scale(0.7)" xlink:href="#DejaVuSans-Oblique-100"/>
    </g>
   </g>
  </g>
  <g id="axes_2">
   <g id="patch_7">
    <path d="M 57.6 213.662118 
L 414.72 213.662118 
L 414.72 135.393882 
L 57.6 135.393882 
z
" style="fill:#ffffff;"/>
   </g>
   <g id="matplotlib.axis_3">
    <g id="xtick_6">
     <g id="line2d_15">
      <g>
       <use style="stroke:#000000;stroke-width:0.8;" x="71.798822" xlink:href="#m618c62f65b" y="213.662118"/>
      </g>
     </g>
     <g id="text_10">
      <!-- 1.0 -->
      <g transform="translate(63.84726 228.260555)scale(0.1 -0.1)">
       <use xlink:href="#DejaVuSans-49"/>
       <use x="63.623047" xlink:href="#DejaVuSans-46"/>
       <use x="95.410156" xlink:href="#DejaVuSans-48"/>
      </g>
     </g>
    </g>
    <g id="xtick_7">
     <g id="line2d_16">
      <g>
       <use style="stroke:#000000;stroke-width:0.8;" x="148.54931" xlink:href="#m618c62f65b" y="213.662118"/>
      </g>
     </g>
     <g id="text_11">
      <!-- 1.2 -->
      <g transform="translate(140.597747 228.260555)scale(0.1 -0.1)">
       <use xlink:href="#DejaVuSans-49"/>
       <use x="63.623047" xlink:href="#DejaVuSans-46"/>
       <use x="95.410156" xlink:href="#DejaVuSans-50"/>
      </g>
     </g>
    </g>
    <g id="xtick_8">
     <g id="line2d_17">
      <g>
       <use style="stroke:#000000;stroke-width:0.8;" x="225.299797" xlink:href="#m618c62f65b" y="213.662118"/>
      </g>
     </g>
     <g id="text_12">
      <!-- 1.4 -->
      <g transform="translate(217.348235 228.260555)scale(0.1 -0.1)">
       <use xlink:href="#DejaVuSans-49"/>
       <use x="63.623047" xlink:href="#DejaVuSans-46"/>
       <use x="95.410156" xlink:href="#DejaVuSans-52"/>
      </g>
     </g>
    </g>
    <g id="xtick_9">
     <g id="line2d_18">
      <g>
       <use style="stroke:#000000;stroke-width:0.8;" x="302.050285" xlink:href="#m618c62f65b" y="213.662118"/>
      </g>
     </g>
     <g id="text_13">
      <!-- 1.6 -->
      <g transform="translate(294.098722 228.260555)scale(0.1 -0.1)">
       <use xlink:href="#DejaVuSans-49"/>
       <use x="63.623047" xlink:href="#DejaVuSans-46"/>
       <use x="95.410156" xlink:href="#DejaVuSans-54"/>
      </g>
     </g>
    </g>
    <g id="xtick_10">
     <g id="line2d_19">
      <g>
       <use style="stroke:#000000;stroke-width:0.8;" x="378.800772" xlink:href="#m618c62f65b" y="213.662118"/>
      </g>
     </g>
     <g id="text_14">
      <!-- 1.8 -->
      <g transform="translate(370.84921 228.260555)scale(0.1 -0.1)">
       <use xlink:href="#DejaVuSans-49"/>
       <use x="63.623047" xlink:href="#DejaVuSans-46"/>
       <use x="95.410156" xlink:href="#DejaVuSans-56"/>
      </g>
     </g>
    </g>
   </g>
   <g id="matplotlib.axis_4">
    <g id="ytick_4">
     <g id="line2d_20">
      <g>
       <use style="stroke:#000000;stroke-width:0.8;" x="57.6" xlink:href="#m3cd75a89b7" y="205.266066"/>
      </g>
     </g>
     <g id="text_15">
      <!-- 500 -->
      <g transform="translate(31.5125 209.065285)scale(0.1 -0.1)">
       <use xlink:href="#DejaVuSans-53"/>
       <use x="63.623047" xlink:href="#DejaVuSans-48"/>
       <use x="127.246094" xlink:href="#DejaVuSans-48"/>
      </g>
     </g>
    </g>
    <g id="ytick_5">
     <g id="line2d_21">
      <g>
       <use style="stroke:#000000;stroke-width:0.8;" x="57.6" xlink:href="#m3cd75a89b7" y="173.400422"/>
      </g>
     </g>
     <g id="text_16">
      <!-- 750 -->
      <defs>
       <path d="M 8.203125 72.90625 
L 55.078125 72.90625 
L 55.078125 68.703125 
L 28.609375 0 
L 18.3125 0 
L 43.21875 64.59375 
L 8.203125 64.59375 
z
" id="DejaVuSans-55"/>
      </defs>
      <g transform="translate(31.5125 177.199641)scale(0.1 -0.1)">
       <use xlink:href="#DejaVuSans-55"/>
       <use x="63.623047" xlink:href="#DejaVuSans-53"/>
       <use x="127.246094" xlink:href="#DejaVuSans-48"/>
      </g>
     </g>
    </g>
    <g id="ytick_6">
     <g id="line2d_22">
      <g>
       <use style="stroke:#000000;stroke-width:0.8;" x="57.6" xlink:href="#m3cd75a89b7" y="141.534778"/>
      </g>
     </g>
     <g id="text_17">
      <!-- 1000 -->
      <g transform="translate(25.15 145.333997)scale(0.1 -0.1)">
       <use xlink:href="#DejaVuSans-49"/>
       <use x="63.623047" xlink:href="#DejaVuSans-48"/>
       <use x="127.246094" xlink:href="#DejaVuSans-48"/>
       <use x="190.869141" xlink:href="#DejaVuSans-48"/>
      </g>
     </g>
    </g>
   </g>
   <g id="line2d_23">
    <path clip-path="url(#pd88e8da3ce)" d="M 73.832727 209.960589 
L 77.555103 209.443877 
L 106.336554 205.673715 
L 308.842695 179.725667 
L 398.487273 168.546069 
" style="fill:none;stroke:#0000ff;stroke-linecap:square;"/>
    <g clip-path="url(#pd88e8da3ce)">
     <use style="fill:#0000ff;stroke:#0000ff;" x="73.832727" xlink:href="#m759d8b9e0f" y="209.960589"/>
     <use style="fill:#0000ff;stroke:#0000ff;" x="77.555103" xlink:href="#m759d8b9e0f" y="209.443877"/>
     <use style="fill:#0000ff;stroke:#0000ff;" x="106.336554" xlink:href="#m759d8b9e0f" y="205.673715"/>
     <use style="fill:#0000ff;stroke:#0000ff;" x="308.842695" xlink:href="#m759d8b9e0f" y="179.725667"/>
     <use style="fill:#0000ff;stroke:#0000ff;" x="398.487273" xlink:href="#m759d8b9e0f" y="168.546069"/>
    </g>
   </g>
   <g id="line2d_24">
    <path clip-path="url(#pd88e8da3ce)" d="M 73.832727 210.104471 
L 77.555103 209.601945 
L 106.336554 205.821801 
L 308.842695 179.716744 
L 398.487273 168.545603 
" style="fill:none;"/>
    <g clip-path="url(#pd88e8da3ce)">
     <use style="fill:#ff0000;stroke:#ff0000;" x="73.832727" xlink:href="#mdf3eab9e89" y="210.104471"/>
     <use style="fill:#ff0000;stroke:#ff0000;" x="77.555103" xlink:href="#mdf3eab9e89" y="209.601945"/>
     <use style="fill:#ff0000;stroke:#ff0000;" x="106.336554" xlink:href="#mdf3eab9e89" y="205.821801"/>
     <use style="fill:#ff0000;stroke:#ff0000;" x="308.842695" xlink:href="#mdf3eab9e89" y="179.716744"/>
     <use style="fill:#ff0000;stroke:#ff0000;" x="398.487273" xlink:href="#mdf3eab9e89" y="168.545603"/>
    </g>
   </g>
   <g id="line2d_25">
    <path clip-path="url(#pd88e8da3ce)" d="M 130.512944 192.699068 
L 162.748145 187.854036 
L 253.313744 174.12353 
L 286.316441 169.222242 
L 345.341412 160.554717 
" style="fill:none;stroke:#0000ff;stroke-linecap:square;"/>
    <g clip-path="url(#pd88e8da3ce)">
     <use style="fill:#0000ff;stroke:#0000ff;" x="130.512944" xlink:href="#m5be8360b4f" y="192.699068"/>
     <use style="fill:#0000ff;stroke:#0000ff;" x="162.748145" xlink:href="#m5be8360b4f" y="187.854036"/>
     <use style="fill:#0000ff;stroke:#0000ff;" x="253.313744" xlink:href="#m5be8360b4f" y="174.12353"/>
     <use style="fill:#0000ff;stroke:#0000ff;" x="286.316441" xlink:href="#m5be8360b4f" y="169.222242"/>
     <use style="fill:#0000ff;stroke:#0000ff;" x="345.341412" xlink:href="#m5be8360b4f" y="160.554717"/>
    </g>
   </g>
   <g id="line2d_26">
    <path clip-path="url(#pd88e8da3ce)" d="M 130.512944 192.937866 
L 162.748145 187.976169 
L 253.313744 174.068706 
L 286.316441 169.24758 
L 345.341412 160.525364 
" style="fill:none;"/>
    <g clip-path="url(#pd88e8da3ce)">
     <use style="fill:#ff0000;stroke:#ff0000;" x="130.512944" xlink:href="#m8a64149716" y="192.937866"/>
     <use style="fill:#ff0000;stroke:#ff0000;" x="162.748145" xlink:href="#m8a64149716" y="187.976169"/>
     <use style="fill:#ff0000;stroke:#ff0000;" x="253.313744" xlink:href="#m8a64149716" y="174.068706"/>
     <use style="fill:#ff0000;stroke:#ff0000;" x="286.316441" xlink:href="#m8a64149716" y="169.24758"/>
     <use style="fill:#ff0000;stroke:#ff0000;" x="345.341412" xlink:href="#m8a64149716" y="160.525364"/>
    </g>
   </g>
   <g id="line2d_27">
    <path clip-path="url(#pd88e8da3ce)" d="M 82.543889 191.360883 
L 196.019467 171.545345 
L 242.568677 163.465514 
L 370.358218 141.603457 
L 386.092071 138.951529 
" style="fill:none;stroke:#0000ff;stroke-linecap:square;"/>
    <g clip-path="url(#pd88e8da3ce)">
     <use style="fill:#0000ff;stroke:#0000ff;" x="82.543889" xlink:href="#m774737005d" y="191.360883"/>
     <use style="fill:#0000ff;stroke:#0000ff;" x="196.019467" xlink:href="#m774737005d" y="171.545345"/>
     <use style="fill:#0000ff;stroke:#0000ff;" x="242.568677" xlink:href="#m774737005d" y="163.465514"/>
     <use style="fill:#0000ff;stroke:#0000ff;" x="370.358218" xlink:href="#m774737005d" y="141.603457"/>
     <use style="fill:#0000ff;stroke:#0000ff;" x="386.092071" xlink:href="#m774737005d" y="138.951529"/>
    </g>
   </g>
   <g id="line2d_28">
    <path clip-path="url(#pd88e8da3ce)" d="M 82.543889 191.460891 
L 196.019467 171.779989 
L 242.568677 163.100483 
L 370.358218 141.612529 
L 386.092071 139.064343 
" style="fill:none;"/>
    <g clip-path="url(#pd88e8da3ce)">
     <use style="fill:#ff0000;stroke:#ff0000;" x="82.543889" xlink:href="#m1924fa1d62" y="191.460891"/>
     <use style="fill:#ff0000;stroke:#ff0000;" x="196.019467" xlink:href="#m1924fa1d62" y="171.779989"/>
     <use style="fill:#ff0000;stroke:#ff0000;" x="242.568677" xlink:href="#m1924fa1d62" y="163.100483"/>
     <use style="fill:#ff0000;stroke:#ff0000;" x="370.358218" xlink:href="#m1924fa1d62" y="141.612529"/>
     <use style="fill:#ff0000;stroke:#ff0000;" x="386.092071" xlink:href="#m1924fa1d62" y="139.064343"/>
    </g>
   </g>
   <g id="patch_8">
    <path d="M 57.6 213.662118 
L 57.6 135.393882 
" style="fill:none;stroke:#000000;stroke-linecap:square;stroke-linejoin:miter;stroke-width:0.8;"/>
   </g>
   <g id="patch_9">
    <path d="M 414.72 213.662118 
L 414.72 135.393882 
" style="fill:none;stroke:#000000;stroke-linecap:square;stroke-linejoin:miter;stroke-width:0.8;"/>
   </g>
   <g id="patch_10">
    <path d="M 57.6 213.662118 
L 414.72 213.662118 
" style="fill:none;stroke:#000000;stroke-linecap:square;stroke-linejoin:miter;stroke-width:0.8;"/>
   </g>
   <g id="patch_11">
    <path d="M 57.6 135.393882 
L 414.72 135.393882 
" style="fill:none;stroke:#000000;stroke-linecap:square;stroke-linejoin:miter;stroke-width:0.8;"/>
   </g>
   <g id="text_18">
    <!-- F$_{normal}$ -->
    <defs>
     <path d="M 55.71875 33.015625 
L 49.3125 0 
L 40.28125 0 
L 46.6875 32.671875 
Q 47.125 34.96875 47.359375 36.71875 
Q 47.609375 38.484375 47.609375 39.5 
Q 47.609375 43.609375 45.015625 45.890625 
Q 42.4375 48.1875 37.796875 48.1875 
Q 30.5625 48.1875 25.34375 43.375 
Q 20.125 38.578125 18.5 30.328125 
L 12.5 0 
L 3.515625 0 
L 14.109375 54.6875 
L 23.09375 54.6875 
L 21.296875 46.09375 
Q 25.046875 50.828125 30.3125 53.40625 
Q 35.59375 56 41.40625 56 
Q 48.640625 56 52.609375 52.09375 
Q 56.59375 48.1875 56.59375 41.109375 
Q 56.59375 39.359375 56.375 37.359375 
Q 56.15625 35.359375 55.71875 33.015625 
z
" id="DejaVuSans-Oblique-110"/>
     <path d="M 25.390625 -1.421875 
Q 15.765625 -1.421875 10.171875 4.515625 
Q 4.59375 10.453125 4.59375 20.703125 
Q 4.59375 26.65625 6.515625 32.828125 
Q 8.453125 39.015625 11.53125 43.21875 
Q 16.359375 49.75 22.3125 52.875 
Q 28.265625 56 35.796875 56 
Q 45.125 56 50.859375 50.1875 
Q 56.59375 44.390625 56.59375 35.015625 
Q 56.59375 28.515625 54.6875 22.0625 
Q 52.78125 15.625 49.703125 11.375 
Q 44.921875 4.828125 38.96875 1.703125 
Q 33.015625 -1.421875 25.390625 -1.421875 
z
M 13.921875 21 
Q 13.921875 13.578125 17.015625 9.890625 
Q 20.125 6.203125 26.421875 6.203125 
Q 35.453125 6.203125 41.375 14.078125 
Q 47.3125 21.96875 47.3125 34.078125 
Q 47.3125 41.15625 44.140625 44.765625 
Q 40.96875 48.390625 34.8125 48.390625 
Q 29.734375 48.390625 25.78125 46.015625 
Q 21.828125 43.65625 18.703125 38.8125 
Q 16.40625 35.203125 15.15625 30.5625 
Q 13.921875 25.921875 13.921875 21 
z
" id="DejaVuSans-Oblique-111"/>
     <path d="M 44.578125 46.390625 
Q 43.21875 47.125 41.453125 47.515625 
Q 39.703125 47.90625 37.703125 47.90625 
Q 30.515625 47.90625 25.140625 42.453125 
Q 19.78125 37.015625 18.015625 27.875 
L 12.5 0 
L 3.515625 0 
L 14.203125 54.6875 
L 23.1875 54.6875 
L 21.484375 46.1875 
Q 25.046875 50.921875 30 53.453125 
Q 34.96875 56 40.578125 56 
Q 42.046875 56 43.453125 55.828125 
Q 44.875 55.671875 46.296875 55.28125 
z
" id="DejaVuSans-Oblique-114"/>
     <path d="M 89.796875 33.015625 
L 83.40625 0 
L 74.421875 0 
L 80.71875 32.71875 
Q 81.109375 34.8125 81.296875 36.328125 
Q 81.5 37.84375 81.5 38.921875 
Q 81.5 43.3125 79.046875 45.75 
Q 76.609375 48.1875 72.21875 48.1875 
Q 65.671875 48.1875 60.546875 43.28125 
Q 55.421875 38.375 53.90625 30.515625 
L 47.90625 0 
L 38.921875 0 
L 45.3125 32.71875 
Q 45.703125 34.515625 45.890625 36.046875 
Q 46.09375 37.59375 46.09375 38.8125 
Q 46.09375 43.265625 43.65625 45.71875 
Q 41.21875 48.1875 36.921875 48.1875 
Q 30.28125 48.1875 25.140625 43.28125 
Q 20.015625 38.375 18.5 30.515625 
L 12.5 0 
L 3.515625 0 
L 14.203125 54.6875 
L 23.1875 54.6875 
L 21.484375 46.1875 
Q 25.140625 50.984375 30.046875 53.484375 
Q 34.96875 56 40.578125 56 
Q 46.53125 56 50.359375 52.875 
Q 54.203125 49.75 54.984375 44.1875 
Q 59.078125 49.953125 64.46875 52.96875 
Q 69.875 56 75.875 56 
Q 82.90625 56 86.734375 51.953125 
Q 90.578125 47.90625 90.578125 40.484375 
Q 90.578125 38.875 90.375 36.9375 
Q 90.1875 35.015625 89.796875 33.015625 
z
" id="DejaVuSans-Oblique-109"/>
     <path d="M 53.71875 31.203125 
L 47.609375 0 
L 38.625 0 
L 40.28125 8.296875 
Q 36.328125 3.421875 31.265625 1 
Q 26.21875 -1.421875 20.015625 -1.421875 
Q 13.03125 -1.421875 8.5625 2.84375 
Q 4.109375 7.125 4.109375 13.8125 
Q 4.109375 23.390625 11.75 28.953125 
Q 19.390625 34.515625 32.8125 34.515625 
L 45.3125 34.515625 
L 45.796875 36.921875 
Q 45.90625 37.3125 45.953125 37.765625 
Q 46 38.234375 46 39.203125 
Q 46 43.5625 42.453125 45.96875 
Q 38.921875 48.390625 32.515625 48.390625 
Q 28.125 48.390625 23.5 47.265625 
Q 18.890625 46.140625 14.015625 43.890625 
L 15.578125 52.203125 
Q 20.65625 54.109375 25.515625 55.046875 
Q 30.375 56 34.90625 56 
Q 44.578125 56 49.625 51.796875 
Q 54.6875 47.609375 54.6875 39.59375 
Q 54.6875 37.984375 54.4375 35.8125 
Q 54.203125 33.640625 53.71875 31.203125 
z
M 44 27.484375 
L 35.015625 27.484375 
Q 23.96875 27.484375 18.671875 24.53125 
Q 13.375 21.578125 13.375 15.375 
Q 13.375 11.078125 16.078125 8.640625 
Q 18.796875 6.203125 23.578125 6.203125 
Q 30.90625 6.203125 36.375 11.453125 
Q 41.84375 16.703125 43.609375 25.484375 
z
" id="DejaVuSans-Oblique-97"/>
     <path d="M 18.3125 75.984375 
L 27.296875 75.984375 
L 12.5 0 
L 3.515625 0 
z
" id="DejaVuSans-Oblique-108"/>
    </defs>
    <g transform="translate(220.76 145.980081)scale(0.1 -0.1)">
     <use transform="translate(0 0.09375)" xlink:href="#DejaVuSans-70"/>
     <use transform="translate(58.476562 -16.3125)scale(0.7)" xlink:href="#DejaVuSans-Oblique-110"/>
     <use transform="translate(102.841797 -16.3125)scale(0.7)" xlink:href="#DejaVuSans-Oblique-111"/>
     <use transform="translate(145.668945 -16.3125)scale(0.7)" xlink:href="#DejaVuSans-Oblique-114"/>
     <use transform="translate(174.448242 -16.3125)scale(0.7)" xlink:href="#DejaVuSans-Oblique-109"/>
     <use transform="translate(242.636719 -16.3125)scale(0.7)" xlink:href="#DejaVuSans-Oblique-97"/>
     <use transform="translate(285.532227 -16.3125)scale(0.7)" xlink:href="#DejaVuSans-Oblique-108"/>
    </g>
   </g>
  </g>
  <g id="axes_3">
   <g id="patch_12">
    <path d="M 57.6 307.584 
L 414.72 307.584 
L 414.72 229.315765 
L 57.6 229.315765 
z
" style="fill:#ffffff;"/>
   </g>
   <g id="matplotlib.axis_5">
    <g id="xtick_11">
     <g id="line2d_29">
      <g>
       <use style="stroke:#000000;stroke-width:0.8;" x="71.798822" xlink:href="#m618c62f65b" y="307.584"/>
      </g>
     </g>
     <g id="text_19">
      <!-- 1.0 -->
      <g transform="translate(63.84726 322.182437)scale(0.1 -0.1)">
       <use xlink:href="#DejaVuSans-49"/>
       <use x="63.623047" xlink:href="#DejaVuSans-46"/>
       <use x="95.410156" xlink:href="#DejaVuSans-48"/>
      </g>
     </g>
    </g>
    <g id="xtick_12">
     <g id="line2d_30">
      <g>
       <use style="stroke:#000000;stroke-width:0.8;" x="148.54931" xlink:href="#m618c62f65b" y="307.584"/>
      </g>
     </g>
     <g id="text_20">
      <!-- 1.2 -->
      <g transform="translate(140.597747 322.182437)scale(0.1 -0.1)">
       <use xlink:href="#DejaVuSans-49"/>
       <use x="63.623047" xlink:href="#DejaVuSans-46"/>
       <use x="95.410156" xlink:href="#DejaVuSans-50"/>
      </g>
     </g>
    </g>
    <g id="xtick_13">
     <g id="line2d_31">
      <g>
       <use style="stroke:#000000;stroke-width:0.8;" x="225.299797" xlink:href="#m618c62f65b" y="307.584"/>
      </g>
     </g>
     <g id="text_21">
      <!-- 1.4 -->
      <g transform="translate(217.348235 322.182437)scale(0.1 -0.1)">
       <use xlink:href="#DejaVuSans-49"/>
       <use x="63.623047" xlink:href="#DejaVuSans-46"/>
       <use x="95.410156" xlink:href="#DejaVuSans-52"/>
      </g>
     </g>
    </g>
    <g id="xtick_14">
     <g id="line2d_32">
      <g>
       <use style="stroke:#000000;stroke-width:0.8;" x="302.050285" xlink:href="#m618c62f65b" y="307.584"/>
      </g>
     </g>
     <g id="text_22">
      <!-- 1.6 -->
      <g transform="translate(294.098722 322.182437)scale(0.1 -0.1)">
       <use xlink:href="#DejaVuSans-49"/>
       <use x="63.623047" xlink:href="#DejaVuSans-46"/>
       <use x="95.410156" xlink:href="#DejaVuSans-54"/>
      </g>
     </g>
    </g>
    <g id="xtick_15">
     <g id="line2d_33">
      <g>
       <use style="stroke:#000000;stroke-width:0.8;" x="378.800772" xlink:href="#m618c62f65b" y="307.584"/>
      </g>
     </g>
     <g id="text_23">
      <!-- 1.8 -->
      <g transform="translate(370.84921 322.182437)scale(0.1 -0.1)">
       <use xlink:href="#DejaVuSans-49"/>
       <use x="63.623047" xlink:href="#DejaVuSans-46"/>
       <use x="95.410156" xlink:href="#DejaVuSans-56"/>
      </g>
     </g>
    </g>
   </g>
   <g id="matplotlib.axis_6">
    <g id="ytick_7">
     <g id="line2d_34">
      <g>
       <use style="stroke:#000000;stroke-width:0.8;" x="57.6" xlink:href="#m3cd75a89b7" y="297.316833"/>
      </g>
     </g>
     <g id="text_24">
      <!-- 500 -->
      <g transform="translate(31.5125 301.116052)scale(0.1 -0.1)">
       <use xlink:href="#DejaVuSans-53"/>
       <use x="63.623047" xlink:href="#DejaVuSans-48"/>
       <use x="127.246094" xlink:href="#DejaVuSans-48"/>
      </g>
     </g>
    </g>
    <g id="ytick_8">
     <g id="line2d_35">
      <g>
       <use style="stroke:#000000;stroke-width:0.8;" x="57.6" xlink:href="#m3cd75a89b7" y="266.649963"/>
      </g>
     </g>
     <g id="text_25">
      <!-- 600 -->
      <g transform="translate(31.5125 270.449182)scale(0.1 -0.1)">
       <use xlink:href="#DejaVuSans-54"/>
       <use x="63.623047" xlink:href="#DejaVuSans-48"/>
       <use x="127.246094" xlink:href="#DejaVuSans-48"/>
      </g>
     </g>
    </g>
    <g id="ytick_9">
     <g id="line2d_36">
      <g>
       <use style="stroke:#000000;stroke-width:0.8;" x="57.6" xlink:href="#m3cd75a89b7" y="235.983093"/>
      </g>
     </g>
     <g id="text_26">
      <!-- 700 -->
      <g transform="translate(31.5125 239.782312)scale(0.1 -0.1)">
       <use xlink:href="#DejaVuSans-55"/>
       <use x="63.623047" xlink:href="#DejaVuSans-48"/>
       <use x="127.246094" xlink:href="#DejaVuSans-48"/>
      </g>
     </g>
    </g>
   </g>
   <g id="line2d_37">
    <path clip-path="url(#p9b147683a6)" d="M 73.832727 304.026353 
L 77.555103 303.220346 
L 106.336554 297.458572 
L 308.842695 261.686288 
L 398.487273 249.030083 
" style="fill:none;stroke:#0000ff;stroke-linecap:square;"/>
    <g clip-path="url(#p9b147683a6)">
     <use style="fill:#0000ff;stroke:#0000ff;" x="73.832727" xlink:href="#m759d8b9e0f" y="304.026353"/>
     <use style="fill:#0000ff;stroke:#0000ff;" x="77.555103" xlink:href="#m759d8b9e0f" y="303.220346"/>
     <use style="fill:#0000ff;stroke:#0000ff;" x="106.336554" xlink:href="#m759d8b9e0f" y="297.458572"/>
     <use style="fill:#0000ff;stroke:#0000ff;" x="308.842695" xlink:href="#m759d8b9e0f" y="261.686288"/>
     <use style="fill:#0000ff;stroke:#0000ff;" x="398.487273" xlink:href="#m759d8b9e0f" y="249.030083"/>
    </g>
   </g>
   <g id="line2d_38">
    <path clip-path="url(#p9b147683a6)" d="M 73.832727 303.374027 
L 77.555103 302.749019 
L 106.336554 297.545525 
L 308.842695 261.699839 
L 398.487273 249.273355 
" style="fill:none;"/>
    <g clip-path="url(#p9b147683a6)">
     <use style="fill:#ff0000;stroke:#ff0000;" x="73.832727" xlink:href="#mdf3eab9e89" y="303.374027"/>
     <use style="fill:#ff0000;stroke:#ff0000;" x="77.555103" xlink:href="#mdf3eab9e89" y="302.749019"/>
     <use style="fill:#ff0000;stroke:#ff0000;" x="106.336554" xlink:href="#mdf3eab9e89" y="297.545525"/>
     <use style="fill:#ff0000;stroke:#ff0000;" x="308.842695" xlink:href="#mdf3eab9e89" y="261.699839"/>
     <use style="fill:#ff0000;stroke:#ff0000;" x="398.487273" xlink:href="#mdf3eab9e89" y="249.273355"/>
    </g>
   </g>
   <g id="line2d_39">
    <path clip-path="url(#p9b147683a6)" d="M 130.512944 286.230696 
L 162.748145 279.977567 
L 253.313744 262.428832 
L 286.316441 256.949881 
L 345.341412 247.788603 
" style="fill:none;stroke:#0000ff;stroke-linecap:square;"/>
    <g clip-path="url(#p9b147683a6)">
     <use style="fill:#0000ff;stroke:#0000ff;" x="130.512944" xlink:href="#m5be8360b4f" y="286.230696"/>
     <use style="fill:#0000ff;stroke:#0000ff;" x="162.748145" xlink:href="#m5be8360b4f" y="279.977567"/>
     <use style="fill:#0000ff;stroke:#0000ff;" x="253.313744" xlink:href="#m5be8360b4f" y="262.428832"/>
     <use style="fill:#0000ff;stroke:#0000ff;" x="286.316441" xlink:href="#m5be8360b4f" y="256.949881"/>
     <use style="fill:#0000ff;stroke:#0000ff;" x="345.341412" xlink:href="#m5be8360b4f" y="247.788603"/>
    </g>
   </g>
   <g id="line2d_40">
    <path clip-path="url(#p9b147683a6)" d="M 130.512944 285.764198 
L 162.748145 280.000627 
L 253.313744 262.728838 
L 286.316441 256.993437 
L 345.341412 247.450563 
" style="fill:none;"/>
    <g clip-path="url(#p9b147683a6)">
     <use style="fill:#ff0000;stroke:#ff0000;" x="130.512944" xlink:href="#m8a64149716" y="285.764198"/>
     <use style="fill:#ff0000;stroke:#ff0000;" x="162.748145" xlink:href="#m8a64149716" y="280.000627"/>
     <use style="fill:#ff0000;stroke:#ff0000;" x="253.313744" xlink:href="#m8a64149716" y="262.728838"/>
     <use style="fill:#ff0000;stroke:#ff0000;" x="286.316441" xlink:href="#m8a64149716" y="256.993437"/>
     <use style="fill:#ff0000;stroke:#ff0000;" x="345.341412" xlink:href="#m8a64149716" y="247.450563"/>
    </g>
   </g>
   <g id="line2d_41">
    <path clip-path="url(#p9b147683a6)" d="M 82.543889 287.426899 
L 196.019467 266.486315 
L 242.568677 254.844566 
L 370.358218 235.230516 
L 386.092071 232.873412 
" style="fill:none;stroke:#0000ff;stroke-linecap:square;"/>
    <g clip-path="url(#p9b147683a6)">
     <use style="fill:#0000ff;stroke:#0000ff;" x="82.543889" xlink:href="#m774737005d" y="287.426899"/>
     <use style="fill:#0000ff;stroke:#0000ff;" x="196.019467" xlink:href="#m774737005d" y="266.486315"/>
     <use style="fill:#0000ff;stroke:#0000ff;" x="242.568677" xlink:href="#m774737005d" y="254.844566"/>
     <use style="fill:#0000ff;stroke:#0000ff;" x="370.358218" xlink:href="#m774737005d" y="235.230516"/>
     <use style="fill:#0000ff;stroke:#0000ff;" x="386.092071" xlink:href="#m774737005d" y="232.873412"/>
    </g>
   </g>
   <g id="line2d_42">
    <path clip-path="url(#p9b147683a6)" d="M 82.543889 287.153922 
L 196.019467 265.502445 
L 242.568677 255.771161 
L 370.358218 235.274315 
L 386.092071 233.083853 
" style="fill:none;"/>
    <g clip-path="url(#p9b147683a6)">
     <use style="fill:#ff0000;stroke:#ff0000;" x="82.543889" xlink:href="#m1924fa1d62" y="287.153922"/>
     <use style="fill:#ff0000;stroke:#ff0000;" x="196.019467" xlink:href="#m1924fa1d62" y="265.502445"/>
     <use style="fill:#ff0000;stroke:#ff0000;" x="242.568677" xlink:href="#m1924fa1d62" y="255.771161"/>
     <use style="fill:#ff0000;stroke:#ff0000;" x="370.358218" xlink:href="#m1924fa1d62" y="235.274315"/>
     <use style="fill:#ff0000;stroke:#ff0000;" x="386.092071" xlink:href="#m1924fa1d62" y="233.083853"/>
    </g>
   </g>
   <g id="patch_13">
    <path d="M 57.6 307.584 
L 57.6 229.315765 
" style="fill:none;stroke:#000000;stroke-linecap:square;stroke-linejoin:miter;stroke-width:0.8;"/>
   </g>
   <g id="patch_14">
    <path d="M 414.72 307.584 
L 414.72 229.315765 
" style="fill:none;stroke:#000000;stroke-linecap:square;stroke-linejoin:miter;stroke-width:0.8;"/>
   </g>
   <g id="patch_15">
    <path d="M 57.6 307.584 
L 414.72 307.584 
" style="fill:none;stroke:#000000;stroke-linecap:square;stroke-linejoin:miter;stroke-width:0.8;"/>
   </g>
   <g id="patch_16">
    <path d="M 57.6 229.315765 
L 414.72 229.315765 
" style="fill:none;stroke:#000000;stroke-linecap:square;stroke-linejoin:miter;stroke-width:0.8;"/>
   </g>
   <g id="text_27">
    <!-- F$_{axial}$ -->
    <defs>
     <path d="M 60.015625 54.6875 
L 34.90625 27.875 
L 50.296875 0 
L 39.984375 0 
L 28.421875 21.6875 
L 8.296875 0 
L -2.59375 0 
L 24.3125 28.8125 
L 10.015625 54.6875 
L 20.3125 54.6875 
L 30.8125 34.90625 
L 49.125 54.6875 
z
" id="DejaVuSans-Oblique-120"/>
     <path d="M 18.3125 75.984375 
L 27.296875 75.984375 
L 25.09375 64.59375 
L 16.109375 64.59375 
z
M 14.203125 54.6875 
L 23.1875 54.6875 
L 12.5 0 
L 3.515625 0 
z
" id="DejaVuSans-Oblique-105"/>
    </defs>
    <g transform="translate(224.76 239.901963)scale(0.1 -0.1)">
     <use transform="translate(0 0.09375)" xlink:href="#DejaVuSans-70"/>
     <use transform="translate(58.476562 -16.3125)scale(0.7)" xlink:href="#DejaVuSans-Oblique-97"/>
     <use transform="translate(101.37207 -16.3125)scale(0.7)" xlink:href="#DejaVuSans-Oblique-120"/>
     <use transform="translate(142.797852 -16.3125)scale(0.7)" xlink:href="#DejaVuSans-Oblique-105"/>
     <use transform="translate(162.246094 -16.3125)scale(0.7)" xlink:href="#DejaVuSans-Oblique-97"/>
     <use transform="translate(205.141602 -16.3125)scale(0.7)" xlink:href="#DejaVuSans-Oblique-108"/>
    </g>
   </g>
  </g>
  <g id="text_28">
   <!-- Cutting forces vs ADOC for different values of Feedrate -->
   <defs>
    <path d="M 64.40625 67.28125 
L 64.40625 56.890625 
Q 59.421875 61.53125 53.78125 63.8125 
Q 48.140625 66.109375 41.796875 66.109375 
Q 29.296875 66.109375 22.65625 58.46875 
Q 16.015625 50.828125 16.015625 36.375 
Q 16.015625 21.96875 22.65625 14.328125 
Q 29.296875 6.6875 41.796875 6.6875 
Q 48.140625 6.6875 53.78125 8.984375 
Q 59.421875 11.28125 64.40625 15.921875 
L 64.40625 5.609375 
Q 59.234375 2.09375 53.4375 0.328125 
Q 47.65625 -1.421875 41.21875 -1.421875 
Q 24.65625 -1.421875 15.125 8.703125 
Q 5.609375 18.84375 5.609375 36.375 
Q 5.609375 53.953125 15.125 64.078125 
Q 24.65625 74.21875 41.21875 74.21875 
Q 47.75 74.21875 53.53125 72.484375 
Q 59.328125 70.75 64.40625 67.28125 
z
" id="DejaVuSans-67"/>
    <path d="M 8.5 21.578125 
L 8.5 54.6875 
L 17.484375 54.6875 
L 17.484375 21.921875 
Q 17.484375 14.15625 20.5 10.265625 
Q 23.53125 6.390625 29.59375 6.390625 
Q 36.859375 6.390625 41.078125 11.03125 
Q 45.3125 15.671875 45.3125 23.6875 
L 45.3125 54.6875 
L 54.296875 54.6875 
L 54.296875 0 
L 45.3125 0 
L 45.3125 8.40625 
Q 42.046875 3.421875 37.71875 1 
Q 33.40625 -1.421875 27.6875 -1.421875 
Q 18.265625 -1.421875 13.375 4.4375 
Q 8.5 10.296875 8.5 21.578125 
z
M 31.109375 56 
z
" id="DejaVuSans-117"/>
    <path d="M 18.3125 70.21875 
L 18.3125 54.6875 
L 36.8125 54.6875 
L 36.8125 47.703125 
L 18.3125 47.703125 
L 18.3125 18.015625 
Q 18.3125 11.328125 20.140625 9.421875 
Q 21.96875 7.515625 27.59375 7.515625 
L 36.8125 7.515625 
L 36.8125 0 
L 27.59375 0 
Q 17.1875 0 13.234375 3.875 
Q 9.28125 7.765625 9.28125 18.015625 
L 9.28125 47.703125 
L 2.6875 47.703125 
L 2.6875 54.6875 
L 9.28125 54.6875 
L 9.28125 70.21875 
z
" id="DejaVuSans-116"/>
    <path d="M 9.421875 54.6875 
L 18.40625 54.6875 
L 18.40625 0 
L 9.421875 0 
z
M 9.421875 75.984375 
L 18.40625 75.984375 
L 18.40625 64.59375 
L 9.421875 64.59375 
z
" id="DejaVuSans-105"/>
    <path d="M 54.890625 33.015625 
L 54.890625 0 
L 45.90625 0 
L 45.90625 32.71875 
Q 45.90625 40.484375 42.875 44.328125 
Q 39.84375 48.1875 33.796875 48.1875 
Q 26.515625 48.1875 22.3125 43.546875 
Q 18.109375 38.921875 18.109375 30.90625 
L 18.109375 0 
L 9.078125 0 
L 9.078125 54.6875 
L 18.109375 54.6875 
L 18.109375 46.1875 
Q 21.34375 51.125 25.703125 53.5625 
Q 30.078125 56 35.796875 56 
Q 45.21875 56 50.046875 50.171875 
Q 54.890625 44.34375 54.890625 33.015625 
z
" id="DejaVuSans-110"/>
    <path d="M 45.40625 27.984375 
Q 45.40625 37.75 41.375 43.109375 
Q 37.359375 48.484375 30.078125 48.484375 
Q 22.859375 48.484375 18.828125 43.109375 
Q 14.796875 37.75 14.796875 27.984375 
Q 14.796875 18.265625 18.828125 12.890625 
Q 22.859375 7.515625 30.078125 7.515625 
Q 37.359375 7.515625 41.375 12.890625 
Q 45.40625 18.265625 45.40625 27.984375 
z
M 54.390625 6.78125 
Q 54.390625 -7.171875 48.1875 -13.984375 
Q 42 -20.796875 29.203125 -20.796875 
Q 24.46875 -20.796875 20.265625 -20.09375 
Q 16.0625 -19.390625 12.109375 -17.921875 
L 12.109375 -9.1875 
Q 16.0625 -11.328125 19.921875 -12.34375 
Q 23.78125 -13.375 27.78125 -13.375 
Q 36.625 -13.375 41.015625 -8.765625 
Q 45.40625 -4.15625 45.40625 5.171875 
L 45.40625 9.625 
Q 42.625 4.78125 38.28125 2.390625 
Q 33.9375 0 27.875 0 
Q 17.828125 0 11.671875 7.65625 
Q 5.515625 15.328125 5.515625 27.984375 
Q 5.515625 40.671875 11.671875 48.328125 
Q 17.828125 56 27.875 56 
Q 33.9375 56 38.28125 53.609375 
Q 42.625 51.21875 45.40625 46.390625 
L 45.40625 54.6875 
L 54.390625 54.6875 
z
" id="DejaVuSans-103"/>
    <path id="DejaVuSans-32"/>
    <path d="M 37.109375 75.984375 
L 37.109375 68.5 
L 28.515625 68.5 
Q 23.6875 68.5 21.796875 66.546875 
Q 19.921875 64.59375 19.921875 59.515625 
L 19.921875 54.6875 
L 34.71875 54.6875 
L 34.71875 47.703125 
L 19.921875 47.703125 
L 19.921875 0 
L 10.890625 0 
L 10.890625 47.703125 
L 2.296875 47.703125 
L 2.296875 54.6875 
L 10.890625 54.6875 
L 10.890625 58.5 
Q 10.890625 67.625 15.140625 71.796875 
Q 19.390625 75.984375 28.609375 75.984375 
z
" id="DejaVuSans-102"/>
    <path d="M 30.609375 48.390625 
Q 23.390625 48.390625 19.1875 42.75 
Q 14.984375 37.109375 14.984375 27.296875 
Q 14.984375 17.484375 19.15625 11.84375 
Q 23.34375 6.203125 30.609375 6.203125 
Q 37.796875 6.203125 41.984375 11.859375 
Q 46.1875 17.53125 46.1875 27.296875 
Q 46.1875 37.015625 41.984375 42.703125 
Q 37.796875 48.390625 30.609375 48.390625 
z
M 30.609375 56 
Q 42.328125 56 49.015625 48.375 
Q 55.71875 40.765625 55.71875 27.296875 
Q 55.71875 13.875 49.015625 6.21875 
Q 42.328125 -1.421875 30.609375 -1.421875 
Q 18.84375 -1.421875 12.171875 6.21875 
Q 5.515625 13.875 5.515625 27.296875 
Q 5.515625 40.765625 12.171875 48.375 
Q 18.84375 56 30.609375 56 
z
" id="DejaVuSans-111"/>
    <path d="M 41.109375 46.296875 
Q 39.59375 47.171875 37.8125 47.578125 
Q 36.03125 48 33.890625 48 
Q 26.265625 48 22.1875 43.046875 
Q 18.109375 38.09375 18.109375 28.8125 
L 18.109375 0 
L 9.078125 0 
L 9.078125 54.6875 
L 18.109375 54.6875 
L 18.109375 46.1875 
Q 20.953125 51.171875 25.484375 53.578125 
Q 30.03125 56 36.53125 56 
Q 37.453125 56 38.578125 55.875 
Q 39.703125 55.765625 41.0625 55.515625 
z
" id="DejaVuSans-114"/>
    <path d="M 48.78125 52.59375 
L 48.78125 44.1875 
Q 44.96875 46.296875 41.140625 47.34375 
Q 37.3125 48.390625 33.40625 48.390625 
Q 24.65625 48.390625 19.8125 42.84375 
Q 14.984375 37.3125 14.984375 27.296875 
Q 14.984375 17.28125 19.8125 11.734375 
Q 24.65625 6.203125 33.40625 6.203125 
Q 37.3125 6.203125 41.140625 7.25 
Q 44.96875 8.296875 48.78125 10.40625 
L 48.78125 2.09375 
Q 45.015625 0.34375 40.984375 -0.53125 
Q 36.96875 -1.421875 32.421875 -1.421875 
Q 20.0625 -1.421875 12.78125 6.34375 
Q 5.515625 14.109375 5.515625 27.296875 
Q 5.515625 40.671875 12.859375 48.328125 
Q 20.21875 56 33.015625 56 
Q 37.15625 56 41.109375 55.140625 
Q 45.0625 54.296875 48.78125 52.59375 
z
" id="DejaVuSans-99"/>
    <path d="M 56.203125 29.59375 
L 56.203125 25.203125 
L 14.890625 25.203125 
Q 15.484375 15.921875 20.484375 11.0625 
Q 25.484375 6.203125 34.421875 6.203125 
Q 39.59375 6.203125 44.453125 7.46875 
Q 49.3125 8.734375 54.109375 11.28125 
L 54.109375 2.78125 
Q 49.265625 0.734375 44.1875 -0.34375 
Q 39.109375 -1.421875 33.890625 -1.421875 
Q 20.796875 -1.421875 13.15625 6.1875 
Q 5.515625 13.8125 5.515625 26.8125 
Q 5.515625 40.234375 12.765625 48.109375 
Q 20.015625 56 32.328125 56 
Q 43.359375 56 49.78125 48.890625 
Q 56.203125 41.796875 56.203125 29.59375 
z
M 47.21875 32.234375 
Q 47.125 39.59375 43.09375 43.984375 
Q 39.0625 48.390625 32.421875 48.390625 
Q 24.90625 48.390625 20.390625 44.140625 
Q 15.875 39.890625 15.1875 32.171875 
z
" id="DejaVuSans-101"/>
    <path d="M 44.28125 53.078125 
L 44.28125 44.578125 
Q 40.484375 46.53125 36.375 47.5 
Q 32.28125 48.484375 27.875 48.484375 
Q 21.1875 48.484375 17.84375 46.4375 
Q 14.5 44.390625 14.5 40.28125 
Q 14.5 37.15625 16.890625 35.375 
Q 19.28125 33.59375 26.515625 31.984375 
L 29.59375 31.296875 
Q 39.15625 29.25 43.1875 25.515625 
Q 47.21875 21.78125 47.21875 15.09375 
Q 47.21875 7.46875 41.1875 3.015625 
Q 35.15625 -1.421875 24.609375 -1.421875 
Q 20.21875 -1.421875 15.453125 -0.5625 
Q 10.6875 0.296875 5.421875 2 
L 5.421875 11.28125 
Q 10.40625 8.6875 15.234375 7.390625 
Q 20.0625 6.109375 24.8125 6.109375 
Q 31.15625 6.109375 34.5625 8.28125 
Q 37.984375 10.453125 37.984375 14.40625 
Q 37.984375 18.0625 35.515625 20.015625 
Q 33.0625 21.96875 24.703125 23.78125 
L 21.578125 24.515625 
Q 13.234375 26.265625 9.515625 29.90625 
Q 5.8125 33.546875 5.8125 39.890625 
Q 5.8125 47.609375 11.28125 51.796875 
Q 16.75 56 26.8125 56 
Q 31.78125 56 36.171875 55.265625 
Q 40.578125 54.546875 44.28125 53.078125 
z
" id="DejaVuSans-115"/>
    <path d="M 2.984375 54.6875 
L 12.5 54.6875 
L 29.59375 8.796875 
L 46.6875 54.6875 
L 56.203125 54.6875 
L 35.6875 0 
L 23.484375 0 
z
" id="DejaVuSans-118"/>
    <path d="M 34.1875 63.1875 
L 20.796875 26.90625 
L 47.609375 26.90625 
z
M 28.609375 72.90625 
L 39.796875 72.90625 
L 67.578125 0 
L 57.328125 0 
L 50.6875 18.703125 
L 17.828125 18.703125 
L 11.1875 0 
L 0.78125 0 
z
" id="DejaVuSans-65"/>
    <path d="M 19.671875 64.796875 
L 19.671875 8.109375 
L 31.59375 8.109375 
Q 46.6875 8.109375 53.6875 14.9375 
Q 60.6875 21.78125 60.6875 36.53125 
Q 60.6875 51.171875 53.6875 57.984375 
Q 46.6875 64.796875 31.59375 64.796875 
z
M 9.8125 72.90625 
L 30.078125 72.90625 
Q 51.265625 72.90625 61.171875 64.09375 
Q 71.09375 55.28125 71.09375 36.53125 
Q 71.09375 17.671875 61.125 8.828125 
Q 51.171875 0 30.078125 0 
L 9.8125 0 
z
" id="DejaVuSans-68"/>
    <path d="M 39.40625 66.21875 
Q 28.65625 66.21875 22.328125 58.203125 
Q 16.015625 50.203125 16.015625 36.375 
Q 16.015625 22.609375 22.328125 14.59375 
Q 28.65625 6.59375 39.40625 6.59375 
Q 50.140625 6.59375 56.421875 14.59375 
Q 62.703125 22.609375 62.703125 36.375 
Q 62.703125 50.203125 56.421875 58.203125 
Q 50.140625 66.21875 39.40625 66.21875 
z
M 39.40625 74.21875 
Q 54.734375 74.21875 63.90625 63.9375 
Q 73.09375 53.65625 73.09375 36.375 
Q 73.09375 19.140625 63.90625 8.859375 
Q 54.734375 -1.421875 39.40625 -1.421875 
Q 24.03125 -1.421875 14.8125 8.828125 
Q 5.609375 19.09375 5.609375 36.375 
Q 5.609375 53.65625 14.8125 63.9375 
Q 24.03125 74.21875 39.40625 74.21875 
z
" id="DejaVuSans-79"/>
    <path d="M 45.40625 46.390625 
L 45.40625 75.984375 
L 54.390625 75.984375 
L 54.390625 0 
L 45.40625 0 
L 45.40625 8.203125 
Q 42.578125 3.328125 38.25 0.953125 
Q 33.9375 -1.421875 27.875 -1.421875 
Q 17.96875 -1.421875 11.734375 6.484375 
Q 5.515625 14.40625 5.515625 27.296875 
Q 5.515625 40.1875 11.734375 48.09375 
Q 17.96875 56 27.875 56 
Q 33.9375 56 38.25 53.625 
Q 42.578125 51.265625 45.40625 46.390625 
z
M 14.796875 27.296875 
Q 14.796875 17.390625 18.875 11.75 
Q 22.953125 6.109375 30.078125 6.109375 
Q 37.203125 6.109375 41.296875 11.75 
Q 45.40625 17.390625 45.40625 27.296875 
Q 45.40625 37.203125 41.296875 42.84375 
Q 37.203125 48.484375 30.078125 48.484375 
Q 22.953125 48.484375 18.875 42.84375 
Q 14.796875 37.203125 14.796875 27.296875 
z
" id="DejaVuSans-100"/>
    <path d="M 34.28125 27.484375 
Q 23.390625 27.484375 19.1875 25 
Q 14.984375 22.515625 14.984375 16.5 
Q 14.984375 11.71875 18.140625 8.90625 
Q 21.296875 6.109375 26.703125 6.109375 
Q 34.1875 6.109375 38.703125 11.40625 
Q 43.21875 16.703125 43.21875 25.484375 
L 43.21875 27.484375 
z
M 52.203125 31.203125 
L 52.203125 0 
L 43.21875 0 
L 43.21875 8.296875 
Q 40.140625 3.328125 35.546875 0.953125 
Q 30.953125 -1.421875 24.3125 -1.421875 
Q 15.921875 -1.421875 10.953125 3.296875 
Q 6 8.015625 6 15.921875 
Q 6 25.140625 12.171875 29.828125 
Q 18.359375 34.515625 30.609375 34.515625 
L 43.21875 34.515625 
L 43.21875 35.40625 
Q 43.21875 41.609375 39.140625 45 
Q 35.0625 48.390625 27.6875 48.390625 
Q 23 48.390625 18.546875 47.265625 
Q 14.109375 46.140625 10.015625 43.890625 
L 10.015625 52.203125 
Q 14.9375 54.109375 19.578125 55.046875 
Q 24.21875 56 28.609375 56 
Q 40.484375 56 46.34375 49.84375 
Q 52.203125 43.703125 52.203125 31.203125 
z
" id="DejaVuSans-97"/>
    <path d="M 9.421875 75.984375 
L 18.40625 75.984375 
L 18.40625 0 
L 9.421875 0 
z
" id="DejaVuSans-108"/>
   </defs>
   <g transform="translate(9.08375 19.0695)scale(0.16 -0.16)">
    <use xlink:href="#DejaVuSans-67"/>
    <use x="69.824219" xlink:href="#DejaVuSans-117"/>
    <use x="133.203125" xlink:href="#DejaVuSans-116"/>
    <use x="172.412109" xlink:href="#DejaVuSans-116"/>
    <use x="211.621094" xlink:href="#DejaVuSans-105"/>
    <use x="239.404297" xlink:href="#DejaVuSans-110"/>
    <use x="302.783203" xlink:href="#DejaVuSans-103"/>
    <use x="366.259766" xlink:href="#DejaVuSans-32"/>
    <use x="398.046875" xlink:href="#DejaVuSans-102"/>
    <use x="433.251953" xlink:href="#DejaVuSans-111"/>
    <use x="494.433594" xlink:href="#DejaVuSans-114"/>
    <use x="535.515625" xlink:href="#DejaVuSans-99"/>
    <use x="590.496094" xlink:href="#DejaVuSans-101"/>
    <use x="652.019531" xlink:href="#DejaVuSans-115"/>
    <use x="704.119141" xlink:href="#DejaVuSans-32"/>
    <use x="735.90625" xlink:href="#DejaVuSans-118"/>
    <use x="795.085938" xlink:href="#DejaVuSans-115"/>
    <use x="847.185547" xlink:href="#DejaVuSans-32"/>
    <use x="878.972656" xlink:href="#DejaVuSans-65"/>
    <use x="947.380859" xlink:href="#DejaVuSans-68"/>
    <use x="1024.382812" xlink:href="#DejaVuSans-79"/>
    <use x="1103.09375" xlink:href="#DejaVuSans-67"/>
    <use x="1172.917969" xlink:href="#DejaVuSans-32"/>
    <use x="1204.705078" xlink:href="#DejaVuSans-102"/>
    <use x="1239.910156" xlink:href="#DejaVuSans-111"/>
    <use x="1301.091797" xlink:href="#DejaVuSans-114"/>
    <use x="1342.205078" xlink:href="#DejaVuSans-32"/>
    <use x="1373.992188" xlink:href="#DejaVuSans-100"/>
    <use x="1437.46875" xlink:href="#DejaVuSans-105"/>
    <use x="1465.251953" xlink:href="#DejaVuSans-102"/>
    <use x="1500.457031" xlink:href="#DejaVuSans-102"/>
    <use x="1535.662109" xlink:href="#DejaVuSans-101"/>
    <use x="1597.185547" xlink:href="#DejaVuSans-114"/>
    <use x="1638.267578" xlink:href="#DejaVuSans-101"/>
    <use x="1699.791016" xlink:href="#DejaVuSans-110"/>
    <use x="1763.169922" xlink:href="#DejaVuSans-116"/>
    <use x="1802.378906" xlink:href="#DejaVuSans-32"/>
    <use x="1834.166016" xlink:href="#DejaVuSans-118"/>
    <use x="1893.345703" xlink:href="#DejaVuSans-97"/>
    <use x="1954.625" xlink:href="#DejaVuSans-108"/>
    <use x="1982.408203" xlink:href="#DejaVuSans-117"/>
    <use x="2045.787109" xlink:href="#DejaVuSans-101"/>
    <use x="2107.310547" xlink:href="#DejaVuSans-115"/>
    <use x="2159.410156" xlink:href="#DejaVuSans-32"/>
    <use x="2191.197266" xlink:href="#DejaVuSans-111"/>
    <use x="2252.378906" xlink:href="#DejaVuSans-102"/>
    <use x="2287.583984" xlink:href="#DejaVuSans-32"/>
    <use x="2319.371094" xlink:href="#DejaVuSans-70"/>
    <use x="2376.8125" xlink:href="#DejaVuSans-101"/>
    <use x="2438.335938" xlink:href="#DejaVuSans-101"/>
    <use x="2499.859375" xlink:href="#DejaVuSans-100"/>
    <use x="2563.335938" xlink:href="#DejaVuSans-114"/>
    <use x="2604.449219" xlink:href="#DejaVuSans-97"/>
    <use x="2665.728516" xlink:href="#DejaVuSans-116"/>
    <use x="2704.9375" xlink:href="#DejaVuSans-101"/>
   </g>
  </g>
  <g id="legend_1">
   <g id="patch_17">
    <path d="M 19.485156 340.6 
L 441.314844 340.6 
Q 443.314844 340.6 443.314844 338.6 
L 443.314844 324.921875 
Q 443.314844 322.921875 441.314844 322.921875 
L 19.485156 322.921875 
Q 17.485156 322.921875 17.485156 324.921875 
L 17.485156 338.6 
Q 17.485156 340.6 19.485156 340.6 
z
" style="fill:#ffffff;opacity:0.8;stroke:#cccccc;stroke-linejoin:miter;"/>
   </g>
   <g id="line2d_43">
    <path d="M 21.485156 331.020312 
L 41.485156 331.020312 
" style="fill:none;stroke:#0000ff;stroke-linecap:square;"/>
   </g>
   <g id="line2d_44">
    <g>
     <use style="fill:#0000ff;stroke:#0000ff;" x="31.485156" xlink:href="#m759d8b9e0f" y="331.020312"/>
    </g>
   </g>
   <g id="text_29">
    <!-- 0.2 -->
    <g transform="translate(49.485156 334.520312)scale(0.1 -0.1)">
     <use xlink:href="#DejaVuSans-48"/>
     <use x="63.623047" xlink:href="#DejaVuSans-46"/>
     <use x="95.410156" xlink:href="#DejaVuSans-50"/>
    </g>
   </g>
   <g id="line2d_45">
    <path d="M 85.388281 331.020312 
L 105.388281 331.020312 
" style="fill:none;stroke:#0000ff;stroke-linecap:square;"/>
   </g>
   <g id="line2d_46">
    <g>
     <use style="fill:#0000ff;stroke:#0000ff;" x="95.388281" xlink:href="#m5be8360b4f" y="331.020312"/>
    </g>
   </g>
   <g id="text_30">
    <!-- 0.24 -->
    <g transform="translate(113.388281 334.520312)scale(0.1 -0.1)">
     <use xlink:href="#DejaVuSans-48"/>
     <use x="63.623047" xlink:href="#DejaVuSans-46"/>
     <use x="95.410156" xlink:href="#DejaVuSans-50"/>
     <use x="159.033203" xlink:href="#DejaVuSans-52"/>
    </g>
   </g>
   <g id="line2d_47">
    <path d="M 155.653906 331.020312 
L 175.653906 331.020312 
" style="fill:none;stroke:#0000ff;stroke-linecap:square;"/>
   </g>
   <g id="line2d_48">
    <g>
     <use style="fill:#0000ff;stroke:#0000ff;" x="165.653906" xlink:href="#m774737005d" y="331.020312"/>
    </g>
   </g>
   <g id="text_31">
    <!-- 0.28 -->
    <g transform="translate(183.653906 334.520312)scale(0.1 -0.1)">
     <use xlink:href="#DejaVuSans-48"/>
     <use x="63.623047" xlink:href="#DejaVuSans-46"/>
     <use x="95.410156" xlink:href="#DejaVuSans-50"/>
     <use x="159.033203" xlink:href="#DejaVuSans-56"/>
    </g>
   </g>
   <g id="line2d_49">
    <path d="M 225.919531 331.020312 
L 245.919531 331.020312 
" style="fill:none;"/>
   </g>
   <g id="line2d_50">
    <g>
     <use style="fill:#ff0000;stroke:#ff0000;" x="235.919531" xlink:href="#mdf3eab9e89" y="331.020312"/>
    </g>
   </g>
   <g id="text_32">
    <!-- , -->
    <defs>
     <path d="M 11.71875 12.40625 
L 22.015625 12.40625 
L 22.015625 4 
L 14.015625 -11.625 
L 7.71875 -11.625 
L 11.71875 4 
z
" id="DejaVuSans-44"/>
    </defs>
    <g transform="translate(253.919531 334.520312)scale(0.1 -0.1)">
     <use xlink:href="#DejaVuSans-44"/>
    </g>
   </g>
   <g id="line2d_51">
    <path d="M 277.097656 331.020312 
L 297.097656 331.020312 
" style="fill:none;"/>
   </g>
   <g id="line2d_52">
    <g>
     <use style="fill:#ff0000;stroke:#ff0000;" x="287.097656" xlink:href="#m8a64149716" y="331.020312"/>
    </g>
   </g>
   <g id="text_33">
    <!-- , -->
    <g transform="translate(305.097656 334.520312)scale(0.1 -0.1)">
     <use xlink:href="#DejaVuSans-44"/>
    </g>
   </g>
   <g id="line2d_53">
    <path d="M 328.275781 331.020312 
L 348.275781 331.020312 
" style="fill:none;"/>
   </g>
   <g id="line2d_54">
    <g>
     <use style="fill:#ff0000;stroke:#ff0000;" x="338.275781" xlink:href="#m1924fa1d62" y="331.020312"/>
    </g>
   </g>
   <g id="text_34">
    <!-- Predicted values -->
    <defs>
     <path d="M 19.671875 64.796875 
L 19.671875 37.40625 
L 32.078125 37.40625 
Q 38.96875 37.40625 42.71875 40.96875 
Q 46.484375 44.53125 46.484375 51.125 
Q 46.484375 57.671875 42.71875 61.234375 
Q 38.96875 64.796875 32.078125 64.796875 
z
M 9.8125 72.90625 
L 32.078125 72.90625 
Q 44.34375 72.90625 50.609375 67.359375 
Q 56.890625 61.8125 56.890625 51.125 
Q 56.890625 40.328125 50.609375 34.8125 
Q 44.34375 29.296875 32.078125 29.296875 
L 19.671875 29.296875 
L 19.671875 0 
L 9.8125 0 
z
" id="DejaVuSans-80"/>
    </defs>
    <g transform="translate(356.275781 334.520312)scale(0.1 -0.1)">
     <use xlink:href="#DejaVuSans-80"/>
     <use x="60.287109" xlink:href="#DejaVuSans-114"/>
     <use x="101.369141" xlink:href="#DejaVuSans-101"/>
     <use x="162.892578" xlink:href="#DejaVuSans-100"/>
     <use x="226.369141" xlink:href="#DejaVuSans-105"/>
     <use x="254.152344" xlink:href="#DejaVuSans-99"/>
     <use x="309.132812" xlink:href="#DejaVuSans-116"/>
     <use x="348.341797" xlink:href="#DejaVuSans-101"/>
     <use x="409.865234" xlink:href="#DejaVuSans-100"/>
     <use x="473.341797" xlink:href="#DejaVuSans-32"/>
     <use x="505.128906" xlink:href="#DejaVuSans-118"/>
     <use x="564.308594" xlink:href="#DejaVuSans-97"/>
     <use x="625.587891" xlink:href="#DejaVuSans-108"/>
     <use x="653.371094" xlink:href="#DejaVuSans-117"/>
     <use x="716.75" xlink:href="#DejaVuSans-101"/>
     <use x="778.273438" xlink:href="#DejaVuSans-115"/>
    </g>
   </g>
  </g>
 </g>
 <defs>
  <clipPath id="pe3c72b24d7">
   <rect height="78.268235" width="357.12" x="57.6" y="41.472"/>
  </clipPath>
  <clipPath id="pd88e8da3ce">
   <rect height="78.268235" width="357.12" x="57.6" y="135.393882"/>
  </clipPath>
  <clipPath id="p9b147683a6">
   <rect height="78.268235" width="357.12" x="57.6" y="229.315765"/>
  </clipPath>
 </defs>
</svg>
